<?xml version="1.0" encoding="UTF-8"?>
<svg width="24px" height="24px" viewBox="0 0 24 24" version="1.1" xmlns="http://www.w3.org/2000/svg" xmlns:xlink="http://www.w3.org/1999/xlink">
    <!-- Generator: Sketch 57.1 (83088) - https://sketch.com -->
    <title>Path</title>
    <desc>Created with Sketch.</desc>
    <g id="Iteration#3" stroke="none" stroke-width="1" fill="none" fill-rule="evenodd">
        <g id="Episode-Unterseite" transform="translate(-102.000000, -2675.000000)" fill="#FFFFFF">
            <g id="Group-10" transform="translate(0.000000, 2437.000000)">
                <g id="Facebook" transform="translate(102.000000, 238.000000)">
                    <path d="M23.0892577,0 L0.977721008,0 C0.45125585,0 0,0.45 0,0.975 L0,22.95 C0,23.55 0.45125585,24 0.977721008,24 L12.7855824,24 L12.7855824,15 L9.77721008,15 L9.77721008,11.25 L12.7855824,11.25 L12.7855824,8.25 C12.7855824,5.175 14.7410244,3.6 17.5237688,3.6 C18.8775364,3.6 20.005676,3.75 20.3065133,3.75 L20.3065133,6.975 L18.3510712,6.975 C16.8468851,6.975 16.4708385,7.725 16.4708385,8.775 L16.4708385,11.25 L20.2313039,11.25 L19.4792109,15 L16.4708385,15 L16.5460478,24 L23.0140484,24 C23.5405135,24 23.9917694,23.55 23.9917694,23.025 L23.9917694,0.975 C24.0669787,0.45 23.6157228,0 23.0892577,0 Z" id="Path"></path>
                </g>
            </g>
        </g>
    </g>
</svg>