<?xml version="1.0" encoding="UTF-8"?>
<svg width="24px" height="24px" viewBox="0 0 24 24" version="1.1" xmlns="http://www.w3.org/2000/svg" xmlns:xlink="http://www.w3.org/1999/xlink">
    <!-- Generator: Sketch 57.1 (83088) - https://sketch.com -->
    <title>Combined Shape</title>
    <desc>Created with Sketch.</desc>
    <g id="Iteration#3" stroke="none" stroke-width="1" fill="none" fill-rule="evenodd">
        <g id="Episode-Unterseite" transform="translate(-161.000000, -2675.000000)" fill="#FFFFFF" fill-rule="nonzero">
            <g id="Group-10" transform="translate(0.000000, 2437.000000)">
                <g id="Intagram" transform="translate(161.000000, 238.000000)">
                    <path d="M10.8399727,0.000762694211 L13.1606851,0.000762694211 C15.383674,0.00436813598 15.8386443,0.0212686442 16.9482277,0.071970169 C18.8990364,0.161222853 20.6120879,0.638987222 21.9868792,2.01377857 C23.3616706,3.38931994 23.839435,5.10237145 23.9286876,7.0524301 C23.9813392,8.20468975 23.9975397,8.65101318 24.0002533,11.1044555 L24.0002533,12.8962023 C23.9975397,15.3496446 23.9813392,15.7959681 23.9286876,16.9482277 C23.839435,18.8990364 23.3616706,20.6120879 21.9868792,21.9868792 C20.6113379,23.3616706 18.8982864,23.839435 16.9482277,23.9286876 C15.7959681,23.9813392 15.3496446,23.9975397 12.8962023,24.0002533 L11.1044555,24.0002533 C8.65101318,23.9975397 8.20468975,23.9813392 7.0524301,23.9286876 C5.10162143,23.839435 3.38856991,23.3616706 2.01377857,21.9868792 C0.638987222,20.6113379 0.161222853,18.8982864 0.071970169,16.9482277 C0.0212686442,15.8386443 0.00436813598,15.383674 0.000762694211,13.1606851 L0.000762694211,10.8399727 C0.00436813598,8.61698382 0.0212686442,8.16201347 0.071970169,7.0524301 C0.161222853,5.10162143 0.638987222,3.38856991 2.01377857,2.01377857 C3.38931994,0.638987222 5.10237145,0.161222853 7.0524301,0.071970169 C8.16201347,0.0212686442 8.61698382,0.00436813598 10.8399727,0.000762694211 L13.1606851,0.000762694211 Z M13.1401178,2.16300306 L10.86054,2.16300306 C8.67928236,2.16629649 8.24801606,2.18198363 7.15143308,2.23203513 C5.785642,2.294287 4.51810388,2.56804524 3.54307456,3.54307456 C2.56804524,4.51810388 2.294287,5.785642 2.23203513,7.15143308 C2.18198363,8.24801606 2.16629649,8.67928236 2.16300306,10.86054 L2.16300306,13.1401178 C2.16629649,15.3213754 2.18198363,15.7526418 2.23203513,16.8492247 C2.294287,18.2150158 2.56804524,19.4825539 3.54307456,20.4575832 C4.51810388,21.4326126 5.785642,21.7063708 7.15143308,21.7686227 C8.33236859,21.8225243 8.74169424,21.8365714 11.3960714,21.8382048 L12.6045864,21.8382048 C15.2589636,21.8365714 15.6682892,21.8225243 16.8492247,21.7686227 C18.2150158,21.7063708 19.4825539,21.4326126 20.4575832,20.4575832 C21.4326126,19.4825539 21.7063708,18.2150158 21.7686227,16.8492247 C21.8225243,15.6682892 21.8365714,15.2589636 21.8382048,12.6045864 L21.8382048,11.3960714 C21.8365714,8.74169424 21.8225243,8.33236859 21.7686227,7.15143308 C21.7063708,5.785642 21.4326126,4.51810388 20.4575832,3.54307456 C19.4825539,2.56804524 18.2150158,2.294287 16.8492247,2.23203513 C15.7526418,2.18198363 15.3213754,2.16629649 13.1401178,2.16300306 Z M12.0003289,5.83814358 C15.4039313,5.83814358 18.1625142,8.59672654 18.1625142,12.0003289 C18.1625142,15.4031812 15.4031812,18.1625142 12.0003289,18.1625142 C8.59747657,18.1625142 5.83814358,15.4039313 5.83814358,12.0003289 C5.83814358,8.59747657 8.59672654,5.83814358 12.0003289,5.83814358 Z M12.0003289,8.00045861 C9.79151248,8.00045861 8.00045861,9.79076245 8.00045861,12.0003289 C8.00045861,14.2091453 9.79076245,16.0001992 12.0003289,16.0001992 C14.2098954,16.0001992 16.0001992,14.2098954 16.0001992,12.0003289 C16.0001992,9.79151248 14.2098954,8.00045861 12.0003289,8.00045861 Z M18.4062716,4.15434294 C19.2015855,4.15434294 19.8463149,4.79907229 19.8463149,5.59438625 C19.8463149,6.38970021 19.2015855,7.03442956 18.4062716,7.03442956 C17.6109576,7.03442956 16.9662282,6.38970021 16.9662282,5.59438625 C16.9662282,4.79907229 17.6109576,4.15434294 18.4062716,4.15434294 Z" id="Combined-Shape"></path>
                </g>
            </g>
        </g>
    </g>
</svg>