<svg width="200" height="25" xmlns="http://www.w3.org/2000/svg"><path d="M17.585 3.462a45.448 45.448 0 0 0-.203 3.801c0 .958.029 1.814.087 2.438h-.682c-.42-4.135-.856-5.557-4.57-5.557h-1.611v16.903c0 2.408.508 2.771 3.003 2.858v.595c-1.044-.058-2.756-.087-4.367-.087-1.784 0-3.453.029-4.396.087v-.595c2.496-.087 3.003-.45 3.003-2.858V4.144H6.24c-3.714 0-4.164 1.422-4.57 5.557H.987c.058-.624.087-1.48.087-2.438 0-.74-.058-2.292-.218-3.8 2.467.086 5.949.086 8.386.086 2.438 0 5.876 0 8.343-.087zm6.398-2.234v11.114c1.045-2.67 3.033-3.555 5.05-3.555 1.523 0 2.466.406 3.148 1.117.74.813 1.044 1.872 1.044 3.903v7.936c0 1.654.624 2.133 2.264 2.133v.624c-.697-.029-2.264-.116-3.57-.116-1.305 0-2.713.087-3.336.116v-.624c1.436 0 1.973-.479 1.973-2.133v-8.589c0-1.843-.276-3.424-2.409-3.424-2.437 0-4.164 2.234-4.164 5.383v6.63c0 1.654.537 2.133 1.959 2.133v.624c-.624-.029-2.017-.116-3.323-.116-1.305 0-2.887.087-3.569.116v-.624c1.64 0 2.264-.479 2.264-2.133V4.797c0-1.785-.537-2.612-2.264-2.612v-.624c.624.058 1.248.087 1.843.087 1.16 0 2.234-.116 3.09-.42zm25.1 19.47l.596.233c-.653 1.988-2.612 3.99-5.557 3.99-4.31 0-6.834-3.149-6.834-7.704 0-5.224 2.64-8.43 6.718-8.43 3.482 0 5.556 2.046 5.556 6.529h-9.285a15.664 15.664 0 0 0-.102 1.9c0 4.078 2.264 6.457 4.542 6.457 1.784 0 3.337-.754 4.367-2.974zM43.89 9.354c-1.77 0-3.338 1.654-3.657 5.397h6.471c.102-2.902-.827-5.397-2.814-5.397zm24.07-6.036l7.24 18.687c.595 1.51 1.436 1.872 2.06 1.901v.595c-.812-.058-2.06-.087-3.192-.087-1.538 0-2.96.029-3.801.087v-.595c1.436-.058 2.104-.276 2.104-1.103 0-.348-.117-.798-.349-1.392l-1.828-4.875h-7.167l-1.219 3.148c-.406 1.03-.595 1.828-.595 2.438 0 1.29.885 1.74 2.583 1.784v.595a70.063 70.063 0 0 0-3.424-.087c-1.001 0-1.625.029-2.22.087v-.595c.769-.174 1.654-.798 2.336-2.582L67.48 3.317h.479zm2.017 12.623l-3.323-8.865-3.41 8.865h6.733zm30.773-2.133v7.936c0 1.654.624 2.133 2.263 2.133v.624c-.682-.029-2.263-.116-3.569-.116s-2.698.087-3.322.116v-.624c1.422 0 1.958-.479 1.958-2.133v-8.589c0-1.843-.116-3.424-2.263-3.424-2.307 0-4.004 2.35-4.004 5.383v6.63c0 1.654.623 2.133 2.248 2.133v.624c-.682-.029-2.249-.116-3.554-.116-1.306 0-2.713.087-3.337.116v-.624c1.436 0 1.958-.479 1.958-2.133v-8.589c0-1.843-.116-3.424-2.249-3.424-2.321 0-4.019 2.38-4.019 5.412v6.601c0 1.654.537 2.133 1.974 2.133v.624c-.624-.029-2.032-.116-3.337-.116-1.306 0-2.888.087-3.57.116v-.624c1.64 0 2.264-.479 2.264-2.133v-9.3c0-1.785-.537-2.626-2.264-2.626v-.624c.624.058 1.248.087 1.843.087 1.16 0 2.234-.116 3.09-.406v3.497c1.016-2.583 2.975-3.584 4.875-3.584 1.393 0 2.409.406 3.09 1.117.523.566.799 1.335.915 2.394 1.06-2.699 3.061-3.511 4.948-3.511 1.392 0 2.408.406 3.09 1.117.74.813.972 2.031.972 3.903zm15.873 6.892l.595.232c-.653 1.988-2.612 3.99-5.557 3.99-4.31 0-6.834-3.149-6.834-7.704 0-5.224 2.64-8.43 6.718-8.43 3.482 0 5.557 2.046 5.557 6.529h-9.286a15.664 15.664 0 0 0-.102 1.9c0 4.078 2.264 6.457 4.542 6.457 1.784 0 3.337-.754 4.367-2.974zm-5.194-11.346c-1.77 0-3.337 1.654-3.657 5.397h6.471c.102-2.902-.827-5.397-2.814-5.397zm17.164-.566c1.61 0 2.713 1.059 2.713 2.336 0 1.015-.653 1.871-1.698 1.871-.827 0-1.581-.55-1.581-1.538 0-.74.479-1.276 1.015-1.61-.145-.203-.362-.29-.623-.29-2.496 0-4.136 3.38-4.136 5.586v6.297c0 1.93 1.19 2.437 3.149 2.437v.624c-.914-.029-2.728-.116-4.57-.116-1.364 0-2.83.087-3.512.116v-.624c1.64 0 2.264-.479 2.264-2.133v-9.3c0-1.785-.537-2.626-2.264-2.626v-.624c.624.058 1.248.087 1.843.087 1.16 0 2.234-.116 3.09-.406v3.714c.624-1.726 2.235-3.801 4.31-3.801zm8.908.087v12.87c0 1.653.624 2.132 2.264 2.132v.624c-.682-.029-2.235-.116-3.599-.116-1.364 0-2.916.087-3.598.116v-.624c1.64 0 2.263-.479 2.263-2.133v-9.3c0-1.785-.536-2.626-2.263-2.626v-.624c.624.058 1.248.087 1.843.087 1.16 0 2.234-.116 3.09-.406zm11.201-.087c1.248 0 2.496.319 3.453.943.885.595 1.393 1.393 1.393 2.292 0 1.074-.682 1.669-1.567 1.669-.9 0-1.64-.537-1.64-1.495 0-.885.566-1.45 1.248-1.64-.391-.71-1.538-1.247-2.67-1.247-1.958 0-4.25 1.669-4.25 7.284 0 5.266 1.987 7.051 4.28 7.051 1.538 0 3.264-.813 4.309-3.061l.566.203c-.595 1.93-2.293 4.135-5.47 4.135-3.685 0-6.573-2.975-6.573-7.879 0-4.875 2.859-8.255 6.921-8.255zm13.551 0c1.669 0 2.917.435 3.599 1.117.943.958 1.19 2.06 1.19 4.164v8.256c0 .957.231 1.407.913 1.407.537 0 .929-.276 1.335-.624l.334.508c-.827.624-1.451 1.088-2.713 1.088-2.075 0-2.554-1.248-2.554-2.64-1.277 2.103-3.148 2.64-4.57 2.64-1.988 0-3.772-1.001-3.772-3.322 0-2.35 1.813-3.396 4.787-4.643 1.988-.827 3.555-1.335 3.555-2.525v-1.842c0-2.496-1.219-2.99-2.757-2.99-1.015 0-2.263.204-2.945 1.06.74.188 1.393.841 1.393 1.813 0 1.016-.682 1.611-1.741 1.611-1.016 0-1.61-.769-1.61-1.843 0-.87.565-1.552 1.392-2.118.842-.551 2.264-1.117 4.164-1.117zm2.104 12.478v-5.833c-.32.479-.972.783-2.844 1.697-1.305.624-2.887 1.48-2.887 3.773 0 1.784 1.016 2.611 2.38 2.611 1.19 0 2.35-.623 3.351-2.248zm16.149-12.478c1.509 0 2.466.406 3.148 1.117.74.813 1.03 1.872 1.03 3.903v7.936c0 1.654.624 2.133 2.264 2.133v.624c-.682-.029-2.264-.116-3.57-.116-1.305 0-2.698.087-3.322.116v-.624c1.422 0 1.959-.479 1.959-2.133v-8.589c0-1.843-.262-3.424-2.409-3.424-2.496 0-4.164 2.38-4.164 5.412v6.601c0 1.654.537 2.133 1.973 2.133v.624c-.624-.029-2.031-.116-3.337-.116s-2.887.087-3.57.116v-.624c1.64 0 2.264-.479 2.264-2.133v-9.3c0-1.785-.537-2.626-2.263-2.626v-.624c.624.058 1.248.087 1.843.087 1.16 0 2.234-.116 3.09-.406v3.497c1.045-2.67 3.032-3.584 5.064-3.584zm13.043 0c1.567 0 2.699.653 3.236 1.088.203.16.377.247.522.247.348 0 .566-.421.667-1.306h.682c-.087 1.088-.116 2.495-.116 5.049h-.682c-.362-2.205-1.364-4.512-4.048-4.512-1.393 0-2.437.798-2.437 2.278 0 1.784 1.784 2.611 3.816 3.931 2.249 1.451 4.062 2.757 4.062 5.195 0 2.727-2.38 4.164-5.078 4.164-.856 0-1.64-.13-2.35-.421a6.278 6.278 0 0 1-1.22-.798.384.384 0 0 0-.275-.116c-.261 0-.493.377-.61 1.117h-.681c.087-1.277.116-2.93.116-5.934h.682c.392 3.323 1.16 5.557 4.135 5.557 1.19 0 2.64-.711 2.64-2.83 0-1.726-1.421-2.669-3.366-3.888-2.161-1.364-4.091-2.524-4.091-4.99 0-2.641 2.046-3.831 4.396-3.831z" fill="#141936"/><path d="M135.586.113c.07-.15.186-.15.257 0l.89 1.894c.07.15.257.293.415.316l1.991.305c.158.024.194.14.08.256l-1.44 1.474a.672.672 0 0 0-.16.513l.34 2.082c.027.165-.066.236-.207.158l-1.781-.983a.593.593 0 0 0-.513 0l-1.781.983c-.142.078-.235.006-.208-.159l.34-2.082a.672.672 0 0 0-.158-.512l-1.441-1.475c-.114-.116-.079-.232.08-.256l1.99-.304a.623.623 0 0 0 .416-.317l.89-1.893z" fill="#ff8370"/></svg>