<?xml version="1.0" encoding="UTF-8"?>
<svg width="300px" height="43px" viewBox="0 0 300 43" version="1.1" xmlns="http://www.w3.org/2000/svg" xmlns:xlink="http://www.w3.org/1999/xlink">
    <!-- Generator: Sketch 58 (84663) - https://sketch.com -->
    <title>Combined Shape</title>
    <desc>Created with Sketch.</desc>
    <g id="Rework6.0" stroke="none" stroke-width="1" fill="none" fill-rule="evenodd">
        <g id="V4.1-Hauptseite" transform="translate(-572.000000, -4482.000000)" fill="#FF0045">
            <g id="Group-30" transform="translate(572.000000, 4482.000000)">
                <path d="M146.514593,9.54145349 C148.007035,9.52575581 149.48436,9.84901163 150.83436,10.4862209 C152.127965,11.099593 153.286105,11.9658721 154.240174,13.0344767 C155.214012,14.1443605 155.972151,15.4263372 156.475058,16.8147093 C157.020407,18.2838953 157.295988,19.8402907 157.28843,21.4077326 C157.299477,23.0048256 157.047733,24.5926163 156.5425,26.1071512 C156.08436,27.4972674 155.376802,28.7926163 154.455291,29.9298256 C153.58436,30.9949419 152.497733,31.8641279 151.266919,32.480407 C150.00936,33.1025 148.622151,33.4181977 147.218663,33.4025 C145.554128,33.4437791 143.910523,33.0251744 142.468663,32.1926163 C141.139012,31.4071512 140.04657,30.2763372 139.305872,28.9211047 L139.305872,42.3321512 L133.419244,42.3321512 L133.419244,9.93854651 L138.559942,9.93854651 L138.559942,13.8920349 C139.379128,12.5740116 140.511686,11.4798256 141.857035,10.7065698 C143.277965,9.91122093 144.886105,9.50889535 146.514593,9.54145349 Z M56.6765698,10.5140698 C58.094593,11.1187209 59.3777326,12.0001163 60.4509884,13.107093 C61.4911047,14.1913953 62.2980814,15.4768605 62.8230814,16.8844186 C63.3631977,18.3204651 63.6358721,19.8431395 63.6279095,21.3774419 C63.6279095,21.76 63.6056395,22.1233721 63.6056395,22.4751163 C63.5990504,22.6724031 63.5805749,22.8691731 63.5503854,23.0642205 L63.4963372,23.3553488 L45.6986628,23.3553488 C45.7684302,24.1943023 45.991686,25.0140698 46.3579651,25.7722093 C47.025407,27.1332558 48.1893605,28.1873256 49.6102907,28.7169767 C50.3126163,28.9797674 51.0568023,29.112907 51.8062209,29.1111628 C52.9678488,29.1140698 54.1108721,28.8187209 55.125407,28.2530233 C56.0060868,27.8113417 56.7163523,27.095214 57.1514859,26.2162173 L57.2544767,25.9931395 L62.3091279,27.3896512 C61.4108721,29.2117442 59.9934302,30.7262791 58.2352907,31.7431395 C56.3742442,32.8605814 54.1562209,33.4193023 51.5800581,33.4193023 C49.8637791,33.4437209 48.1597093,33.1227907 46.5701744,32.4751163 C43.700407,31.3082558 41.4358721,29.012907 40.3091279,26.1268605 C39.7358721,24.6867442 39.444593,23.1506977 39.4509884,21.6006977 C39.4411047,20.0169767 39.725407,18.4454651 40.2893605,16.9652326 C40.8294767,15.540814 41.6515698,14.2396512 42.7062209,13.1402326 C43.8015698,12.0094186 45.1178488,11.115814 46.5730814,10.5140698 C48.1812209,9.84953488 49.9073837,9.52104651 51.6469186,9.5472093 C53.3725,9.51813953 55.0847093,9.8472093 56.6765698,10.5140698 Z M182.83657,9.54145349 C184.56157,9.51412791 186.273779,9.84319767 187.86564,10.508314 C189.288895,11.1152907 190.57436,12.005407 191.642965,13.1234302 C192.6825,14.2211047 193.495872,15.5123837 194.037733,16.9234302 C195.151686,19.8536628 195.151686,23.0908721 194.037733,26.0205233 C193.49936,27.4286628 192.693547,28.7187791 191.66564,29.8205233 C190.601686,30.9449419 189.315058,31.8356395 187.888314,32.4356395 C186.421114,33.0442636 184.854254,33.3714922 183.269236,33.4016518 L182.83657,33.4025 C181.10343,33.4292442 179.383081,33.1001744 177.7825,32.4356395 C176.350523,31.8327326 175.0575,30.9426163 173.9825,29.8205233 C172.942965,28.7234302 172.129012,27.4321512 171.587733,26.0205233 C170.473779,23.0908721 170.473779,19.8536628 171.587733,16.9234302 C172.129593,15.5123837 172.943547,14.2211047 173.9825,13.1234302 C175.0575,12.0019186 176.350523,11.1118023 177.7825,10.508314 C179.383081,9.84436047 181.10343,9.5152907 182.83657,9.54145349 Z M235.819419,9.54145349 C237.544419,9.51354651 239.256628,9.84261628 240.848488,10.508314 C242.268837,11.1118023 243.554302,11.9931977 244.628721,13.1013372 C245.668837,14.1868023 246.476395,15.4728488 247.000814,16.8815698 C247.54093,18.3100581 247.816512,19.824593 247.813627,21.3519186 C247.813627,21.7321512 247.813627,22.0978488 247.791512,22.4501744 C247.785116,22.7455233 247.748488,23.0391279 247.682791,23.3275 L229.884535,23.3275 C229.954884,24.1664535 230.178721,24.9856395 230.544419,25.7443605 C230.879884,26.4263372 231.342674,27.0379651 231.907791,27.5461047 C232.459535,28.0426163 233.100233,28.430407 233.796163,28.6891279 C234.499651,28.9525 235.244419,29.0868023 235.995,29.0856395 C237.153721,29.0868023 238.293837,28.7914535 239.306047,28.2280814 C240.261279,27.7484302 241.01593,26.946686 241.438023,25.9647093 L246.489767,27.3618023 C245.59093,29.1728488 244.177558,30.6786628 242.426977,31.6897093 C240.566512,32.8315698 238.347907,33.4025 235.771744,33.4025 C234.055465,33.4269186 232.351977,33.1059884 230.76186,32.458314 C229.327558,31.8681977 228.027558,30.9937791 226.939767,29.8873837 C225.883372,28.8025 225.053721,27.5176163 224.500814,26.1071512 C223.926977,24.6676163 223.636279,23.1309884 223.643035,21.5809884 C223.633953,19.9972674 223.918256,18.4257558 224.481047,16.9461047 C225.021163,15.5222674 225.843256,14.2222674 226.897907,13.1234302 C227.989186,12.0007558 229.297326,11.1112209 230.742674,10.508314 C232.351977,9.84552326 234.078721,9.51703488 235.819419,9.54145349 Z M262.415465,9.54145349 C264.140465,9.51412791 265.852674,9.84319767 267.444535,10.508314 C268.863721,11.1123837 270.148023,11.9943605 271.22186,13.1013372 C272.261977,14.1868023 273.069535,15.4728488 273.593953,16.8815698 C274.135233,18.3100581 274.411977,19.824593 274.409666,21.3519186 C274.409666,21.7321512 274.409666,22.0978488 274.387558,22.4501744 C274.378837,22.7455233 274.341628,23.0391279 274.27593,23.3275 L256.480581,23.3275 C256.548605,24.1670349 256.77186,24.9868023 257.140465,25.7443605 C257.474767,26.4257558 257.936977,27.0373837 258.50093,27.5461047 C259.053256,28.0437791 259.695116,28.4315698 260.392209,28.6891279 C261.094535,28.9525 261.838721,29.0873837 262.588721,29.0856395 C263.749186,29.0873837 264.891047,28.7920349 265.905,28.2280814 C266.860814,27.7490116 267.615465,26.9472674 268.036977,25.9647093 L273.091047,27.3618023 C272.193372,29.1809884 270.776512,30.6937791 269.020116,31.7094767 C267.157907,32.8379651 264.939884,33.4025 262.367791,33.4025 C260.651512,33.4263372 258.948023,33.105407 257.357907,32.458314 C254.488721,31.2891279 252.224767,28.9931977 251.09686,26.1071512 C250.525349,24.6670349 250.235233,23.130407 250.241628,21.5809884 C250.231744,19.9972674 250.516047,18.4257558 251.08,16.9461047 C251.619535,15.5222674 252.440465,14.2222674 253.493953,13.1234302 C254.585814,12.0001744 255.895116,11.1106395 257.341628,10.508314 C258.949767,9.84494186 260.67593,9.51645349 262.415465,9.54145349 Z M90.4837209,0.581511628 L90.4837209,32.9780233 L85.3540698,32.9780233 L85.3540698,29.012907 C84.5348837,30.3315116 83.4023256,31.4268605 82.0569767,32.2012791 C80.6348837,32.9948837 79.0273256,33.3954651 77.3994186,33.3634884 C75.9116279,33.3768605 74.4395349,33.054186 73.0936047,32.4187209 C71.794186,31.8082558 70.6319767,30.9402326 69.6767442,29.8681395 C68.7040698,28.757093 67.9459302,27.4756977 67.4412791,26.087907 C66.8965116,24.6193023 66.6209302,23.0640698 66.6284884,21.4972093 C66.6168605,19.8995349 66.869186,18.3105814 67.3744186,16.7948837 C67.8337209,15.4053488 68.5406977,14.1105814 69.4616279,12.9727907 C70.3319767,11.907093 71.4186047,11.0390698 72.6494186,10.4245349 C73.905814,9.80360465 75.2912791,9.48790698 76.6924419,9.50244186 C78.3563953,9.46174419 79.9994186,9.87918605 81.4424419,10.7094186 C82.6803571,11.4371595 83.7142412,12.4631769 84.4514601,13.6915784 L84.6162791,13.9786047 L84.6162791,0.581511628 L90.4837209,0.581511628 Z M294.968198,23.6430814 C297.646686,23.6430814 299.818779,25.814593 299.818779,28.4936628 C299.818779,31.1721512 297.646686,33.3436628 294.968198,33.3436628 C292.289128,33.3436628 290.117616,31.1721512 290.117616,28.4936628 C290.117616,25.814593 292.289128,23.6430814 294.968198,23.6430814 Z M119.907151,10.4584302 C121.148475,11.1722048 122.208981,12.1594348 123.00956,13.3432965 L123.204244,13.643314 L123.204244,9.68982558 L128.342616,9.68982558 L128.342616,32.9776163 L122.4525,32.9776163 L122.4525,28.6723837 C121.711802,30.0281977 120.61936,31.1590116 119.289709,31.9468023 C117.847267,32.7770349 116.204244,33.1944767 114.540291,33.1537791 C113.139709,33.168314 111.755407,32.8526163 110.500174,32.231686 C109.268779,31.6177326 108.182151,30.7491279 107.311802,29.6834302 C106.390872,28.5456395 105.683314,27.2497093 105.224593,25.8584302 C104.71936,24.3438953 104.467616,22.7561047 104.478663,21.1590116 C104.471105,19.5915698 104.746686,18.0357558 105.292035,16.5659884 C105.79436,15.1781977 106.5525,13.8968023 107.526919,12.7880814 C108.483314,11.7171512 109.645523,10.8497093 110.94436,10.2375 C112.289709,9.60261628 113.761802,9.27936047 115.249593,9.29331395 C116.878081,9.26017442 118.486221,9.6625 119.907151,10.4584302 Z M28.870407,9.55569767 C30.2768023,9.55404293 31.4331977,9.81732558 32.3407558,10.3463953 C33.211686,10.8347674 33.939593,11.5440698 34.4500581,12.4027907 C34.9663372,13.2998837 35.3180814,14.2818605 35.489593,15.3027907 C35.6465698,16.2092829 35.7377358,17.1258689 35.7621197,18.0451464 L35.7687285,18.5969767 L35.7687285,32.9777907 L29.8791279,32.9777907 L29.8791279,20.0498837 C29.8808721,18.2056977 29.5663372,16.859186 28.9349419,16.0097674 C28.3331977,15.1731395 27.3523837,14.6934884 26.3221512,14.7330233 C25.0948256,14.7545349 23.9192442,15.2324419 23.0256395,16.0743023 C22.0569454,16.9340519 21.3334695,18.0325795 20.9247186,19.2578507 L20.8291279,19.5667442 L20.8291279,32.9777907 L14.939593,32.9777907 L14.939593,20.0469767 C14.9413372,18.2033721 14.6268023,16.8562791 13.995407,16.0068605 C13.3936628,15.1702326 12.4128488,14.6911628 11.3826163,14.7301163 C10.2390116,14.7318605 9.14773256,15.1713953 8.10819767,16.0487209 C7.12078073,16.8995515 6.38552029,18.0010346 5.97782697,19.234934 L5.88959302,19.5219767 L5.88959302,32.9777907 L5.81395358e-05,32.9777907 L5.81395358e-05,9.94116279 L5.3169186,9.94116279 L5.3169186,14.2051163 C6.13784884,12.7539535 7.35354651,11.5661628 8.82331395,10.7795349 C10.3855233,9.95453488 12.1314535,9.53883721 13.8971512,9.57255814 C15.823314,9.57255814 17.3134302,10.0382558 18.3680814,10.9696512 C19.4029651,11.8737209 20.1122674,13.092907 20.3878488,14.4394186 C21.2407558,12.9417442 22.4669186,11.6905814 23.9471512,10.8074419 C25.4465698,9.95569767 27.1465698,9.52372093 28.870407,9.55569767 Z M291.260523,9.63126163 C291.415174,9.63069767 291.569244,9.64465116 291.72157,9.67313953 L291.72157,15.0347674 C290.069826,15.0353488 288.437267,15.3876744 286.932616,16.0684884 C285.59657,16.6580233 284.518663,17.7109302 283.898314,19.0330233 L283.898314,32.9777907 L278.011686,32.9777907 L278.011686,9.93825581 L283.415174,9.93825581 L283.415174,14.8586047 C283.809942,14.0917442 284.297151,13.3760465 284.865174,12.7272093 C285.403547,12.1138372 286.007616,11.5615116 286.6675,11.0812791 C287.268663,10.6365116 287.926221,10.2743023 288.623314,10.0027907 C289.232035,9.7644186 289.879709,9.63825581 290.53436,9.63126163 L291.260523,9.63126163 Z M167.165116,9.93854651 L167.165116,32.9780814 L161.277907,32.9780814 L161.277907,9.93854651 L167.165116,9.93854651 Z M213.282791,9.54180233 C214.715349,9.54180233 215.88686,9.80517442 216.797907,10.3325 C217.668837,10.8249419 218.396163,11.5365698 218.907209,12.3970349 C219.421163,13.2958721 219.770581,14.2790116 219.938023,15.2999419 C220.126977,16.388314 220.22,17.4900581 220.217674,18.5941279 L220.228721,32.9778488 L214.341512,32.9778488 L214.341512,20.0447093 C214.341512,18.1987791 214.019419,16.8511047 213.375233,16.001686 C212.747326,15.1598256 211.744419,14.6830814 210.695581,14.7272674 C210.07814,14.7330814 209.467674,14.8522674 208.893256,15.079593 C208.268837,15.3197093 207.683372,15.6534302 207.158372,16.0685465 C206.60314,16.5063372 206.108372,17.0156395 205.685698,17.5830814 C205.249651,18.1638953 204.921744,18.8185465 204.719419,19.5162209 L204.719419,32.9778488 L198.829302,32.9778488 L198.829302,9.93831395 L204.138023,9.93831395 L204.138023,14.1993605 C205.005465,12.7191279 206.290349,11.5272674 207.831628,10.7737791 C209.52407,9.93366279 211.393256,9.51156977 213.282791,9.54180233 Z M100.958721,9.94145349 L100.958721,32.9670349 L95.0715116,32.9670349 L95.0715116,9.94145349 L100.958721,9.94145349 Z M182.82843,14.5513372 C182.0075,14.5449419 181.196453,14.7257558 180.456337,15.0792442 C179.727849,15.4286628 179.077267,15.9222674 178.544709,16.5298256 C177.987733,17.1757558 177.558663,17.9222674 177.279012,18.7286628 C176.964477,19.6164535 176.808663,20.5525 176.818547,21.4943605 C176.805174,22.4461047 176.962151,23.3920349 177.281919,24.2885465 C177.567965,25.0856395 177.999942,25.8228488 178.556337,26.4623837 C179.084826,27.0681977 179.73657,27.5548256 180.467384,27.8897093 C181.97843,28.5658721 183.705756,28.5658721 185.216802,27.8897093 C185.948198,27.5548256 186.59936,27.0681977 187.12843,26.4623837 C187.687733,25.8170349 188.120291,25.0722674 188.402267,24.2658721 C188.720872,23.3629651 188.877849,22.4106395 188.866221,21.4525 C188.874942,20.5094767 188.717965,19.5722674 188.402267,18.6838953 C188.116802,17.8792442 187.681919,17.1356395 187.119709,16.4931977 C186.588314,15.8844767 185.934244,15.3949419 185.200523,15.0571512 C184.455756,14.7181977 183.646453,14.5455233 182.82843,14.5513372 Z M144.899477,14.5513372 C144.3175,14.5536628 143.739593,14.6478488 143.186686,14.8309884 C142.602965,15.0222674 142.051221,15.3001744 141.549477,15.6548256 C141.051802,16.0065698 140.60064,16.4205233 140.208779,16.8873837 C139.820988,17.3426163 139.516337,17.8629651 139.308779,18.4240116 L139.308779,23.821686 C139.808198,25.1129651 140.6425,26.2478488 141.72564,27.1106395 C142.714012,27.9350581 143.95936,28.3885465 145.245988,28.3926163 C146.091919,28.4036628 146.928547,28.2118023 147.685523,27.8338953 C148.422733,27.4519186 149.07157,26.9199419 149.590756,26.2722674 C150.130291,25.6065698 150.547151,24.849593 150.820407,24.0368023 C151.112849,23.1897093 151.261105,22.2990116 151.258779,21.4025 C151.268081,20.4786628 151.104128,19.5612209 150.77564,18.6978488 C150.472151,17.8961047 150.0175,17.1600581 149.437267,16.5298256 C148.866337,15.9158721 148.178547,15.4228488 147.414012,15.0792442 C146.623314,14.7251744 145.765756,14.5449419 144.899477,14.5513372 Z M78.6732558,14.5373256 C77.8273256,14.5256977 76.9906977,14.7169767 76.2343023,15.0960465 C75.5069767,15.4669767 74.8639535,15.9832558 74.3453488,16.6134884 C73.8069767,17.2803488 73.3906977,18.0367442 73.1162791,18.8483721 C72.8232558,19.6972093 72.675,20.5884884 72.6773256,21.4861628 C72.6686047,22.4088372 72.8325581,23.3251163 73.1610465,24.187907 C73.4633721,24.9925581 73.9174419,25.7315116 74.4994186,26.3646512 C75.0697674,26.9780233 75.7575581,27.4710465 76.522093,27.8146512 C77.3133721,28.1663953 78.1703488,28.3454651 79.0366279,28.3397883 C79.6186047,28.3373256 80.1965116,28.2431395 80.7494186,28.0605814 C81.3296512,27.8733721 81.877907,27.5995349 82.3755814,27.2472093 C82.8726744,26.8960465 83.3232558,26.4826744 83.7168605,26.0181395 C84.0400194,25.6378101 84.3054425,25.2126647 84.5047185,24.7561617 L84.6162791,24.4786047 L84.6162791,19.0803488 C84.1075581,17.8024419 83.2697674,16.6809302 82.1883721,15.8309302 C81.202907,15.0036047 79.9598837,14.5460465 78.6732558,14.5373256 Z M116.864709,14.2973837 C115.99843,14.2909884 115.140872,14.4712209 114.350174,14.8252907 C113.58564,15.1688953 112.897849,15.6619186 112.326919,16.2752907 C111.746105,16.9078488 111.292035,17.6456395 110.989128,18.4491279 C110.657733,19.3194767 110.493779,20.2444767 110.505407,21.1758721 C110.503081,22.0723837 110.651337,22.9630814 110.94436,23.8107558 C111.217616,24.6229651 111.633895,25.3799419 112.17343,26.0456395 C112.696105,26.6869186 113.346686,27.2113372 114.084477,27.5851744 C114.841453,27.9630814 115.678081,28.1549419 116.524012,28.1444767 C117.81064,28.1357558 119.054244,27.6770349 120.038547,26.8479651 C121.035684,26.0552996 121.822777,25.0327732 122.333517,23.8695559 L122.455407,23.5758721 L122.44436,18.1584302 C122.236221,17.5973837 121.93157,17.0776163 121.54436,16.6218023 C121.1525,16.1549419 120.701337,15.7409884 120.203663,15.3898256 C119.704826,15.0392442 119.15657,14.765407 118.5775,14.5764535 C118.024593,14.3938953 117.446686,14.2997093 116.864709,14.2973837 Z M51.5434302,13.8222093 L51.5434302,13.8222093 C50.9707558,13.8193023 50.4009884,13.8983721 49.850407,14.057093 C49.6725,14.1094186 49.4969186,14.1710465 49.325407,14.2413953 C48.653314,14.5181395 48.0358721,14.9117442 47.5009884,15.4036047 C47.369593,15.5152326 47.2463372,15.6576744 47.1265698,15.7948837 C46.7573837,16.2169767 46.4475,16.6867442 46.2044767,17.1919767 C45.903314,17.8319477 45.7116533,18.5177671 45.6368952,19.2202232 L45.6120349,19.5222093 L57.5591279,19.5361628 C57.5451744,19.335 57.5201744,19.1559302 57.4922674,18.9768605 C57.4597093,18.7460465 57.4149419,18.5163953 57.3579651,18.2896512 C57.1411047,17.3931395 56.7161047,16.5605814 56.1172674,15.8588372 C55.9701744,15.6896512 55.8149419,15.5286047 55.6509884,15.3756977 C54.6752616,14.4722093 53.4253343,13.9328379 52.1103622,13.8362604 L51.8276631,13.8223714 Z M231.683953,15.3868023 C231.145,15.9025 230.705465,16.5135465 230.387442,17.1891279 C230.044419,17.9199419 229.843256,18.7100581 229.795581,19.5164535 L241.747907,19.5164535 C241.600814,17.7897093 240.964186,16.405407 239.83686,15.3647093 C237.531047,13.2402907 233.97814,13.2501744 231.683953,15.3868023 Z M262.314884,13.805407 C261.554419,13.8001744 260.800349,13.9414535 260.093372,14.221686 C259.423605,14.4902907 258.809651,14.8815698 258.282907,15.3757558 C257.742209,15.8902907 257.302093,16.5013372 256.986395,17.1775 C256.641047,17.908314 256.438721,18.6984302 256.391628,19.505407 L268.343953,19.5164535 C268.198605,17.7897093 267.561977,16.405407 266.432907,15.3647093 C265.316047,14.3275 263.83814,13.7681977 262.314884,13.805407 Z" id="Combined-Shape"></path>
            </g>
        </g>
    </g>
</svg>