<?xml version="1.0" encoding="UTF-8"?>
<svg width="265px" height="23px" viewBox="0 0 265 23" version="1.1" xmlns="http://www.w3.org/2000/svg" xmlns:xlink="http://www.w3.org/1999/xlink">
    <!-- Generator: Sketch 58 (84663) - https://sketch.com -->
    <title>mp-presents</title>
    <desc>Created with Sketch.</desc>
    <defs>
        <polygon id="path-1" points="0.178705564 0.0562604651 12.3927814 0.0562604651 12.3927814 16.8415115 0.178705564 16.8415115"></polygon>
        <polygon id="path-3" points="148.54022 12.1052577 153.507126 12.1052577 153.507126 17.0719553 148.54022 17.0719553"></polygon>
    </defs>
    <g id="Rework6.0" stroke="none" stroke-width="1" fill="none" fill-rule="evenodd">
        <g id="iPhone-8" transform="translate(-55.000000, -45.000000)">
            <g id="Group-8">
                <g id="Group-2" transform="translate(55.000000, 38.000000)">
                    <g id="mp-presents">
                        <g id="mp-logo" transform="translate(0.000000, 7.168000)">
                            <g id="Group-3" transform="translate(33.934884, 0.241503)">
                                <mask id="mask-2" fill="white">
                                    <use xlink:href="#path-1"></use>
                                </mask>
                                <g id="Clip-2"></g>
                                <path d="M9.38865116,6.91554233 C9.00762791,6.22136558 8.44621395,5.64298419 7.76364651,5.24171907 C7.0248186,4.81664 6.1835907,4.60290977 5.33164651,4.62374698 C4.61425116,4.61630512 3.90489302,4.77794233 3.2616186,5.0958586 C2.63144186,5.41050047 2.07508837,5.85492837 1.62946977,6.40056558 C1.15795349,6.98311442 0.795981395,7.64603535 0.560818605,8.35747721 C0.302139535,9.13351442 0.172948837,9.9470586 0.178902326,10.7650679 C0.175032558,11.5673005 0.316130233,12.3635795 0.595051163,13.1155051 C0.853432558,13.826054 1.2416,14.4821284 1.7396093,15.0509842 C2.22868837,15.5998958 2.82373953,16.0443237 3.48904186,16.3568819 C4.17815814,16.68224 4.93186977,16.8474493 5.6936186,16.8406028 C6.52710698,16.8569749 7.35017674,16.6518772 8.07828837,16.2455516 C8.76710698,15.8490493 9.34697674,15.2882307 9.7664,14.6131051 L9.7664,16.6432447 L12.3927814,16.6432447 L12.3927814,0.0562306977 L9.38865116,0.0562306977 L9.38865116,6.91554233 Z M9.38865116,12.2915423 C9.28267907,12.5793935 9.12669767,12.8461098 8.92814884,13.0797842 C8.72662326,13.317626 8.49592558,13.5292726 8.24141395,13.7090679 C7.98660465,13.8894586 7.70589767,14.0296633 7.4088186,14.1255144 C7.12573023,14.2189842 6.82984186,14.2672074 6.53186977,14.2684684 C6.08833488,14.2713749 5.64956279,14.1796912 5.24442791,13.9995981 C4.85298605,13.8236726 4.50083721,13.5712447 4.2088186,13.2571981 C3.91084651,12.9330307 3.67836279,12.5546865 3.52357209,12.1427051 C3.35538605,11.7009563 3.27144186,11.2318214 3.27590698,10.7594121 C3.27471628,10.2998028 3.35062326,9.84346791 3.50065116,9.40886326 C3.64115349,8.99330977 3.85428837,8.60603535 4.12993488,8.26460279 C4.39546047,7.94192372 4.72468837,7.67758884 5.09707907,7.48767256 C5.48435349,7.29358884 5.91270698,7.19565395 6.34582326,7.20160744 C7.00457674,7.20607256 7.64100465,7.44034233 8.14556279,7.86393302 C8.69923721,8.29913302 9.12818605,8.87334698 9.38865116,9.52763535 L9.38865116,12.2915423 Z" id="Fill-1" fill="#FFFFFF" mask="url(#mask-2)"></path>
                            </g>
                            <path d="M17.6384298,6.35022884 C17.3770716,5.91056372 17.0043833,5.54740093 16.558467,5.29735442 C16.0937972,5.0264707 15.5017228,4.89166998 14.7816484,4.89251721 C13.8990437,4.87614512 13.0286437,5.09731721 12.2609414,5.53341023 C11.5030623,5.98557767 10.875267,6.62617302 10.4385786,7.39298233 C10.2974809,6.70356837 9.93431814,6.07934512 9.40445767,5.6164614 C8.86447628,5.13958698 8.10153674,4.90114977 7.1153414,4.90114977 C6.21130419,4.88388465 5.31738791,5.09672186 4.51753674,5.51912186 C3.76501581,5.92187535 3.1425786,6.53002419 2.72226233,7.27301953 L2.72226233,5.08987535 L2.97674419e-05,5.08987535 L2.97674419e-05,16.8846288 L3.01547163,16.8846288 L3.01547163,9.99525209 C3.21223442,9.30405209 3.6069507,8.68608 4.15139721,8.21694512 C4.68363907,7.76775442 5.24237395,7.54271256 5.82789953,7.54181953 C6.3553786,7.52187535 6.85755535,7.76715907 7.16564837,8.19551256 C7.48892279,8.63041488 7.64996465,9.32012651 7.64907163,10.2640521 L7.64907163,16.8846288 L10.6645135,16.8846288 L10.6645135,10.018173 C10.8618716,9.3272707 11.2518251,8.70691721 11.7891274,8.23004279 C12.246653,7.79901023 12.8485507,7.55432186 13.4769414,7.54330791 C14.0044205,7.52306605 14.5065972,7.76864744 14.8146902,8.19700093 C15.1379647,8.63190326 15.2990065,9.32131721 15.2981135,10.2655405 L15.2981135,16.8846288 L18.313589,16.8846288 L18.313589,9.52165209 C18.3150437,8.95636837 18.2671181,8.39197767 18.1706716,7.83502884 C18.0828577,7.31231256 17.9027647,6.80954047 17.6384298,6.35022884" id="Fill-4" fill="#FFFFFF"></path>
                            <polygon id="Fill-7" fill="#FFFFFF" points="48.676614 16.8791219 51.6908651 16.8791219 51.6908651 5.09002419 48.676614 5.09002419"></polygon>
                            <path d="M63.080573,4.9611907 L63.080573,6.98537674 C62.6608521,6.31084651 62.0809823,5.75062326 61.3924614,5.35471628 C60.6649451,4.9472 59.8415777,4.7412093 59.0077916,4.75817674 C58.2460428,4.75103256 57.4923312,4.91653953 56.8035126,5.2416 C56.1385079,5.55505116 55.5434567,5.9991814 55.0537823,6.54749767 C54.55488,7.11516279 54.1667126,7.77123721 53.9095219,8.48178605 C53.6303033,9.23430698 53.4892056,10.0308837 53.4930753,10.833414 C53.4874195,11.6511256 53.6163126,12.4640744 53.8749916,13.2395163 C54.1098567,13.9518512 54.4721265,14.6153674 54.9436428,15.1979163 C55.3892614,15.7435535 55.9456149,16.1882791 56.5760893,16.5026233 C57.2187684,16.8205395 57.9275312,16.9821767 58.6446288,16.9747349 C59.496573,16.9955721 60.3378009,16.7818419 61.0763312,16.3567628 C61.7571126,15.953414 62.3164428,15.3744372 62.69568,14.6802605 L62.69568,16.8845395 L65.7114195,16.8845395 L65.7114195,4.9611907 L63.080573,4.9611907 Z M62.6971684,12.0708465 C62.43968,12.728707 62.0128149,13.306493 61.4597358,13.7461581 C60.955773,14.1706419 60.3190474,14.405507 59.660294,14.4099721 C59.2271777,14.4153302 58.7988242,14.3170977 58.4112521,14.1236093 C58.0335033,13.9322047 57.7004056,13.6637023 57.4327963,13.3353674 C57.1565544,12.9945302 56.9434195,12.6069581 56.8035126,12.191107 C56.6534847,11.7570977 56.5775777,11.3010605 56.5787684,10.8420465 C56.5728149,10.3651721 56.6567591,9.89157209 56.8264335,9.44595349 C56.9815219,9.03456744 57.2140056,8.6568186 57.5113823,8.33294884 C57.8036986,8.01890233 58.1558474,7.76647442 58.5472893,7.59054884 C58.9521265,7.40926512 59.3911963,7.31698605 59.8347312,7.32026047 C60.1327033,7.32145116 60.4285916,7.36967442 60.71168,7.46314419 C61.0081637,7.55988837 61.2888707,7.70009302 61.5442753,7.8795907 C61.7990847,8.05938605 62.03008,8.27133023 62.2307126,8.51036279 C62.4289637,8.74373953 62.5849451,9.00986047 62.6915126,9.29711628 L62.6971684,12.0708465 Z" id="Fill-8" fill="#FFFFFF"></path>
                            <path d="M120.715133,17.10208 C119.836398,17.1145823 118.964212,16.950266 118.150073,16.6186567 C117.41571,16.3165172 116.75011,15.8688149 116.193161,15.3023405 C115.652287,14.74688 115.227505,14.0890195 114.944417,13.3668614 C114.650612,12.6298195 114.501775,11.843066 114.505234,11.049466 C114.500584,10.2386009 114.646147,9.43398698 114.934296,8.67640558 C115.210835,7.94740093 115.631747,7.28180093 116.171728,6.71919628 C116.730463,6.14438698 117.400231,5.68894512 118.140249,5.38025674 C118.964212,5.04090791 119.848305,4.87272186 120.739542,4.88522419 C121.622742,4.87093581 122.499393,5.03941953 123.314426,5.38025674 C124.041645,5.68924279 124.699803,6.14051721 125.249905,6.70788465 C125.782445,7.26364279 126.195914,7.9220986 126.464417,8.64336372 C126.740956,9.37474977 126.882054,10.1501916 126.880577,10.9321823 C126.880577,11.1268614 126.880577,11.3140986 126.869254,11.4944893 C126.86598,11.6457079 126.847226,11.7960335 126.813589,11.94368 L117.700882,11.94368 C117.7369,12.3732242 117.851505,12.7926474 118.038742,13.1811126 C118.2105,13.5302847 118.447449,13.8434381 118.736789,14.1036056 C119.019282,14.3578195 119.347319,14.5563684 119.703635,14.6888335 C120.063821,14.82368 120.445142,14.8924428 120.82944,14.8918474 C121.422705,14.8924428 122.006445,14.7412242 122.524696,14.4527777 C123.013775,14.2071963 123.400156,13.7967033 123.616268,13.2939312 L126.202761,14.0092428 C125.742556,14.9364986 125.01891,15.7074753 124.122612,16.2251312 C123.170054,16.8097637 122.034128,17.10208 120.715133,17.10208 L120.715133,17.10208 Z M123.774928,9.99242419 C123.699617,9.10833116 123.373663,8.39956837 122.796473,7.86673116 C121.615896,6.77902884 119.796807,6.7840893 118.622184,7.87804279 C118.34624,8.14208 118.121198,8.45493581 117.95837,8.80083349 C117.782742,9.17501023 117.679747,9.57954977 117.655338,9.99242419 L123.774928,9.99242419 Z" id="Fill-10" fill="#FFFFFF"></path>
                            <path d="M134.332309,17.10208 C133.453574,17.1142847 132.581388,16.9499684 131.767248,16.6186567 C130.298225,16.0200335 129.139081,14.8445172 128.561593,13.3668614 C128.268979,12.6295219 128.120439,11.8427684 128.123713,11.049466 C128.118653,10.2386009 128.264216,9.43398698 128.55296,8.67640558 C128.829202,7.94740093 129.249518,7.28180093 129.788904,6.71919628 C130.347937,6.1440893 131.0183,5.68864744 131.758913,5.38025674 C132.582281,5.04061023 133.466076,4.87242419 134.356718,4.88522419 C135.239918,4.87123349 136.116569,5.03971721 136.931602,5.38025674 C137.658225,5.68954047 138.315788,6.14111256 138.865593,6.70788465 C139.398132,7.26364279 139.811602,7.9220986 140.080104,8.64336372 C140.357239,9.37474977 140.498932,10.1501916 140.497749,10.9321823 C140.497749,11.1268614 140.497749,11.3140986 140.48643,11.4944893 C140.481965,11.6457079 140.462913,11.7960335 140.429276,11.94368 L131.318058,11.94368 C131.352886,12.3735219 131.467193,12.7932428 131.655918,13.1811126 C131.827081,13.529987 132.063732,13.8431405 132.352476,14.1036056 C132.635267,14.3584149 132.9639,14.5569637 133.320811,14.6888335 C133.680402,14.82368 134.061425,14.8927405 134.445425,14.8918474 C135.039583,14.8927405 135.624216,14.7415219 136.14336,14.4527777 C136.632737,14.207494 137.019118,13.7970009 137.234932,13.2939312 L139.822616,14.0092428 C139.363007,14.940666 138.637574,15.7152149 137.7383,16.2352521 C136.784848,16.8130381 135.64922,17.10208 134.332309,17.10208 L134.332309,17.10208 Z M137.392104,9.99242419 C137.317686,9.10833116 136.991732,8.39956837 136.413648,7.86673116 C135.841816,7.33568 135.085127,7.04931721 134.30522,7.06836837 C133.915862,7.0656893 133.529779,7.13802419 133.167807,7.28150326 C132.824886,7.41902884 132.510541,7.61936372 132.240848,7.87238698 C131.964011,8.13582884 131.738672,8.44868465 131.577034,8.79488 C131.400216,9.16905674 131.296625,9.57359628 131.272513,9.98676837 L137.392104,9.99242419 Z" id="Fill-12" fill="#FFFFFF"></path>
                            <path d="M149.361444,7.69780093 C148.515751,7.6980986 147.679881,7.8784893 146.9095,8.22706605 C146.225444,8.52890791 145.673555,9.06799628 145.355937,9.74490791 L145.355937,16.8846288 L142.341983,16.8846288 L142.341983,5.08838698 L145.108569,5.08838698 L145.108569,7.60760558 C145.31069,7.21497302 145.560141,6.84853581 145.850969,6.51633116 C146.126616,6.20228465 146.4359,5.91949395 146.77376,5.67361488 C147.081555,5.44589395 147.418225,5.26044279 147.775137,5.12142884 C148.086802,4.99938233 148.418411,4.93478698 148.753593,4.93120595 L149.125388,4.93120595 C149.204569,4.93091721 149.283453,4.9380614 149.361444,4.95264744 L149.361444,7.69780093 Z" id="Fill-14" fill="#FFFFFF"></path>
                            <path d="M75.3759553,17.10208 C74.5237135,17.1232149 73.6821879,16.9088893 72.9439553,16.4826195 C72.263174,16.0804614 71.7038437,15.5014847 71.3246065,14.8076056 L71.3246065,21.6740614 L68.310653,21.6740614 L68.310653,5.08853581 L70.9426902,5.08853581 L70.9426902,7.11272186 C71.3621135,6.43789395 71.9419833,5.8776707 72.6308019,5.48176372 C73.3583181,5.07454512 74.1816856,4.86855442 75.0154716,4.88522419 C75.7796019,4.87718698 76.5359926,5.04269395 77.2271926,5.36894512 C77.8895181,5.68299163 78.4824856,6.12652651 78.9709693,6.67365209 C79.469574,7.24191256 79.8577414,7.89828465 80.1152298,8.60913116 C80.3944484,9.36135442 80.535546,10.1582288 80.5316763,10.9607591 C80.5373321,11.7784707 80.4084391,12.5914195 80.14976,13.3668614 C79.9151926,14.0786009 79.5529228,14.7418195 79.0811088,15.3240707 C78.6351926,15.8694102 78.0788391,16.3144335 77.4486623,16.6299684 C76.8047926,16.94848 76.0945414,17.1101172 75.3759553,17.10208 M74.365946,14.5370195 C74.7990623,14.5426753 75.2274158,14.4444428 75.6149879,14.2509544 C75.9924391,14.0553823 76.3246437,13.7830102 76.590467,13.4514009 C76.8667088,13.1105637 77.0801414,12.7229916 77.2200484,12.3068428 C77.3697786,11.8731312 77.4456856,11.417094 77.4444949,10.95808 C77.4492577,10.4850753 77.3653135,10.0153451 77.1971274,9.5732986 C77.0417414,9.16280558 76.80896,8.78594977 76.5118809,8.4632707 C76.2195647,8.14892651 75.8674158,7.8964986 75.475974,7.72057302 C75.0711367,7.5392893 74.632067,7.44701023 74.1885321,7.45028465 C73.89056,7.45147535 73.5946716,7.4996986 73.3115833,7.59346605 C73.0127181,7.69140093 72.7302251,7.8336893 72.4733321,8.0152707 C72.2185228,8.19536372 71.9875274,8.40730791 71.7868949,8.64634047 C71.588346,8.87941953 71.4323647,9.14583814 71.3260949,9.43309395 L71.3260949,12.1967033 C71.5817972,12.8578381 72.00896,13.4388986 72.5635274,13.8806474 C73.069574,14.3027498 73.7071926,14.5349358 74.365946,14.5370195" id="Fill-16" fill="#FFFFFF"></path>
                            <polygon id="Fill-19" fill="#FFFFFF" points="82.5742884 16.8847777 85.5885395 16.8847777 85.5885395 5.08853581 82.5742884 5.08853581"></polygon>
                            <path d="M93.6123237,17.10208 C92.7249563,17.115773 91.8441377,16.9472893 91.02464,16.6070474 C90.2914679,16.2983591 89.62944,15.8426195 89.07904,15.2681079 C88.5467981,14.7063963 88.130054,14.0452614 87.8529191,13.3225079 C87.2825749,11.8225265 87.2825749,10.1650753 87.8529191,8.66479628 C88.1303516,7.94234047 88.5470958,7.28120558 89.07904,6.71919628 C89.62944,6.14498233 90.2914679,5.68924279 91.02464,5.38025674 C91.8441377,5.04031256 92.7249563,4.87182884 93.6123237,4.88522419 C94.4955237,4.87123349 95.3721749,5.03971721 96.1872074,5.38025674 C96.9159144,5.69102884 97.5740726,6.14676837 98.1211981,6.71919628 C98.65344,7.28120558 99.0698865,7.94234047 99.3473191,8.66479628 C99.9176633,10.1650753 99.9176633,11.8225265 99.3473191,13.3225079 C99.0716726,14.0434753 98.6590958,14.7040149 98.1328074,15.2681079 C97.5880633,15.8438102 96.9293098,16.2998474 96.1988167,16.6070474 C95.3793191,16.9469916 94.4990958,17.1154753 93.6123237,17.10208 M90.5310958,11.0051126 C90.5242493,11.4924056 90.6046214,11.9767219 90.7683423,12.4357358 C90.9147981,12.8438474 91.1359702,13.2212986 91.4208447,13.5487405 C91.6914307,13.8589172 92.0251237,14.1080707 92.3993005,14.2795312 C93.1729563,14.6257265 94.057347,14.6257265 94.8310028,14.2795312 C95.2054772,14.1080707 95.5388726,13.8589172 95.8097563,13.5487405 C96.0961191,13.2183219 96.3175888,12.8370009 96.4619609,12.4241265 C96.6250865,11.9618381 96.7054586,11.4742474 96.6995051,10.98368 C96.7039702,10.5008521 96.6235981,10.0210009 96.4619609,9.56615442 C96.3158028,9.15417302 96.0931423,8.77344744 95.8052912,8.44451721 C95.5332167,8.13285209 95.198333,7.88221023 94.8226679,7.7092614 C94.441347,7.53571721 94.0269842,7.44730791 93.6081563,7.45028465 C93.18784,7.44701023 92.7725842,7.53958698 92.3936447,7.72057302 C92.0206586,7.89947535 91.6875609,8.15220093 91.4148912,8.4632707 C91.1297191,8.79398698 90.9100353,9.17620093 90.766854,9.58907535 C90.6058121,10.0436242 90.5260353,10.52288 90.5310958,11.0051126" id="Fill-20" fill="#FFFFFF"></path>
                            <path d="M112.757105,16.8846586 L109.742854,16.8846586 L109.742854,10.2628912 C109.742854,9.31777488 109.577942,8.62776558 109.248119,8.19286326 C108.926631,7.7618307 108.413142,7.51773767 107.876138,7.54036093 C107.560007,7.54333767 107.247449,7.60436093 106.953347,7.72075163 C106.633645,7.84369116 106.333887,8.01455628 106.065087,8.22709581 C105.780807,8.45124465 105.527487,8.71200744 105.311077,9.00253767 C105.087821,9.29991442 104.919933,9.63509581 104.816342,9.99230512 L104.816342,16.8846586 L101.800603,16.8846586 L101.800603,5.08841674 L104.518668,5.08841674 L104.518668,7.27007256 C104.962798,6.51219349 105.620659,5.90196093 106.409793,5.51617488 C107.276324,5.08603535 108.233347,4.86992372 109.200789,4.88540279 C109.934259,4.88540279 110.534073,5.0202493 111.000528,5.29024 C111.446445,5.54237023 111.818835,5.90672372 112.080491,6.34728186 C112.343635,6.80748651 112.522538,7.31085395 112.608268,7.83357023 C112.705012,8.39081674 112.75264,8.95490977 112.751449,9.52019349 L112.757105,16.8846586 Z" id="Fill-22" fill="#FFFFFF"></path>
                            <path d="M32.1654177,8.64482233 C31.8966177,7.92415256 31.4834456,7.26599442 30.950906,6.71083163 C30.4013991,6.14405953 29.7444316,5.69278512 29.0184037,5.38320372 C28.2033712,5.04177116 27.32672,4.87328744 26.4432223,4.88817116 C25.5525805,4.87477581 24.6687851,5.04296186 23.8454177,5.38320372 C23.1003386,5.69129674 22.4264037,6.14882233 21.8655851,6.72779907 C21.3256037,7.2907014 20.9046921,7.95689674 20.6281526,8.68619907 C20.3394084,9.44407814 20.1938456,10.2486921 20.198906,11.0595572 C20.1956316,11.8531572 20.3447665,12.639613 20.6382735,13.3769526 C21.2151665,14.8546084 22.3746084,16.029827 23.8439293,16.6272595 C24.6577712,16.9588688 25.5302549,17.1231851 26.4089898,17.1106828 C27.7279851,17.1106828 28.863613,16.8246177 29.8164688,16.2524874 C30.7166363,15.7318549 31.4423665,14.956413 31.9022735,14.0235014 L29.3142921,13.3084874 C29.0987758,13.8106642 28.7126921,14.2205619 28.2242084,14.4655479 C27.7047665,14.7551851 27.1195386,14.9064037 26.5247851,14.9049153 C26.1410828,14.9058084 25.7600595,14.8376409 25.4004688,14.7030921 C24.6729526,14.4319107 24.0770084,13.892227 23.7352781,13.1953712 C23.5477433,12.8072037 23.4334363,12.3874828 23.3977153,11.9579386 L32.5101247,11.9579386 C32.5422735,11.8096967 32.561027,11.6587758 32.5660874,11.5072595 C32.5660874,11.3271665 32.5774897,11.14112 32.5774897,10.9452502 C32.5815665,10.1596874 32.4419572,9.38007814 32.1654177,8.64482233 L32.1654177,8.64482233 Z M23.3533619,9.99537116 C23.3774735,9.5819014 23.4804688,9.17676651 23.6566921,8.80229209 C23.78112,8.54361302 23.9397805,8.30309209 24.1288037,8.08698047 C24.1901247,8.0167293 24.2532316,7.94379907 24.320506,7.88664558 C24.5943665,7.63481302 24.9104967,7.43328744 25.2546084,7.29159442 C25.3424223,7.25557581 25.43232,7.22402233 25.5234084,7.19723163 C25.805306,7.11596651 26.097027,7.07548279 26.3902363,7.07697116 C27.1680595,7.05851535 27.9223665,7.34368744 28.493306,7.87235721 C28.5772502,7.95064558 28.6567293,8.0331014 28.7320409,8.11972465 C29.0386456,8.47901767 29.2562456,8.90528744 29.3672781,9.3643014 C29.3964502,9.48039442 29.4193712,9.59797581 29.4360409,9.71615256 C29.4503293,9.80783628 29.4631293,9.89952 29.4702735,10.0025153 L23.3533619,9.99537116 Z" id="Fill-24" fill="#FFFFFF"></path>
                            <mask id="mask-4" fill="white">
                                <use xlink:href="#path-3"></use>
                            </mask>
                            <g id="Clip-27"></g>
                            <path d="M151.023717,12.1052577 C152.395103,12.1052577 153.507215,13.2170716 153.507215,14.5887553 C153.507215,15.9601414 152.395103,17.0719553 151.023717,17.0719553 C149.652033,17.0719553 148.54022,15.9601414 148.54022,14.5887553 C148.54022,13.2170716 149.652033,12.1052577 151.023717,12.1052577" id="Fill-26" fill="#FFFFFF" mask="url(#mask-4)"></path>
                        </g>
                        <path d="M170.899968,12.44928 L170.899968,14.061568 L170.97216,14.061568 C171.116545,13.8369695 171.305044,13.6083638 171.537664,13.375744 C171.770284,13.1431242 172.055038,12.9345716 172.391936,12.75008 C172.728834,12.5655884 173.109843,12.4131846 173.534976,12.292864 C173.960109,12.1725434 174.437373,12.112384 174.966784,12.112384 C175.784964,12.112384 176.538962,12.2687984 177.2288,12.581632 C177.918638,12.8944656 178.512211,13.3236026 179.009536,13.869056 C179.506861,14.4145094 179.891881,15.0562096 180.164608,15.794176 C180.437335,16.5321424 180.573696,17.3262464 180.573696,18.176512 C180.573696,19.0267776 180.441345,19.8248923 180.17664,20.57088 C179.911935,21.3168677 179.534936,21.9665892 179.045632,22.520064 C178.556328,23.0735388 177.962755,23.5147077 177.264896,23.843584 C176.567037,24.1724603 175.776943,24.336896 174.894592,24.336896 C174.076412,24.336896 173.326425,24.1684497 172.644608,23.831552 C171.962791,23.4946543 171.437399,23.0374429 171.068416,22.459904 L171.020288,22.459904 L171.020288,29.77536 L168.132608,29.77536 L168.132608,12.44928 L170.899968,12.44928 Z M177.637888,18.176512 C177.637888,17.7273151 177.569707,17.2821355 177.433344,16.84096 C177.296981,16.3997845 177.092439,16.0027324 176.819712,15.649792 C176.546985,15.2968516 176.202071,15.0120971 175.78496,14.79552 C175.367849,14.5789429 174.878552,14.470656 174.317056,14.470656 C173.787645,14.470656 173.314391,14.5829535 172.89728,14.807552 C172.480169,15.0321505 172.123223,15.3209156 171.826432,15.673856 C171.529641,16.0267964 171.305046,16.4278591 171.15264,16.877056 C171.000234,17.3262529 170.924032,17.7754431 170.924032,18.22464 C170.924032,18.6738369 171.000234,19.1190165 171.15264,19.560192 C171.305046,20.0013675 171.529641,20.3984196 171.826432,20.75136 C172.123223,21.1043004 172.480169,21.3890549 172.89728,21.605632 C173.314391,21.8222091 173.787645,21.930496 174.317056,21.930496 C174.878552,21.930496 175.367849,21.8181985 175.78496,21.5936 C176.202071,21.3690015 176.546985,21.0802364 176.819712,20.727296 C177.092439,20.3743556 177.296981,19.9732929 177.433344,19.524096 C177.569707,19.0748991 177.637888,18.6257089 177.637888,18.176512 Z M183.899876,12.44928 L186.667236,12.44928 L186.667236,14.3744 L186.715364,14.3744 C187.036219,13.7006046 187.485409,13.1551594 188.062948,12.738048 C188.640486,12.3209366 189.314272,12.112384 190.084324,12.112384 C190.196623,12.112384 190.316942,12.1163946 190.445284,12.124416 C190.573626,12.1324374 190.685923,12.1524905 190.78218,12.184576 L190.78218,14.831616 C190.589667,14.7834878 190.425231,14.7514027 190.288868,14.73536 C190.152504,14.7193173 190.020154,14.711296 189.891812,14.711296 C189.234059,14.711296 188.704656,14.8316148 188.303588,15.072256 C187.902519,15.3128972 187.58969,15.6016623 187.365092,15.93856 C187.140493,16.2754577 186.988089,16.6203716 186.907876,16.973312 C186.827662,17.3262524 186.787556,17.6069963 186.787556,17.815552 L186.787556,24 L183.899876,24 L183.899876,12.44928 Z M200.894407,17.069568 C200.894407,16.7005848 200.842269,16.3476497 200.737991,16.010752 C200.633713,15.6738543 200.469278,15.377068 200.244679,15.120384 C200.020081,14.8637 199.735326,14.6591581 199.390407,14.506752 C199.045488,14.3543459 198.640415,14.278144 198.175175,14.278144 C197.308867,14.278144 196.574922,14.5388347 195.973319,15.060224 C195.371716,15.5816133 195.038834,16.2513879 194.974663,17.069568 L200.894407,17.069568 Z M203.782087,18.369024 L203.782087,18.754048 C203.782087,18.88239 203.774066,19.01073 203.758023,19.139072 L194.974663,19.139072 C195.006749,19.5561834 195.115036,19.9371929 195.299527,20.282112 C195.484019,20.6270311 195.728667,20.9238174 196.033479,21.17248 C196.338291,21.4211426 196.683205,21.6176633 197.068231,21.762048 C197.453257,21.9064327 197.85432,21.978624 198.271431,21.978624 C198.993355,21.978624 199.60297,21.8462733 200.100295,21.581568 C200.59762,21.3168627 201.006704,20.9518957 201.327559,20.486656 L203.252679,22.026752 C202.113644,23.5668557 200.461266,24.336896 198.295495,24.336896 C197.397101,24.336896 196.570912,24.1965241 195.816903,23.915776 C195.062894,23.6350279 194.409162,23.2379759 193.855687,22.724608 C193.302212,22.2112401 192.869065,21.5815717 192.556231,20.835584 C192.243398,20.0895963 192.086983,19.2433541 192.086983,18.296832 C192.086983,17.3663527 192.243398,16.5201105 192.556231,15.75808 C192.869065,14.9960495 193.298202,14.346328 193.843655,13.808896 C194.389109,13.271464 195.034819,12.8543588 195.780807,12.557568 C196.526795,12.2607772 197.332931,12.112384 198.199239,12.112384 C199.001376,12.112384 199.743342,12.2447347 200.425159,12.50944 C201.106976,12.7741453 201.696538,13.1671867 202.193863,13.688576 C202.691188,14.2099653 203.080219,14.8596868 203.360967,15.63776 C203.641715,16.4158332 203.782087,17.3262455 203.782087,18.369024 Z M213.437099,15.529472 C213.180415,15.1925743 212.82748,14.8997986 212.378283,14.651136 C211.929086,14.4024734 211.439789,14.278144 210.910379,14.278144 C210.445139,14.278144 210.020013,14.374399 209.634987,14.566912 C209.249961,14.759425 209.057451,15.0802751 209.057451,15.529472 C209.057451,15.9786689 209.270014,16.2955084 209.695147,16.48 C210.073043,16.6439925 210.606209,16.8111518 211.294659,16.9814817 L211.560107,17.045504 C211.993261,17.1417605 212.430419,17.2701005 212.871595,17.430528 C213.31277,17.5909555 213.713833,17.8035187 214.074795,18.068224 C214.435756,18.3329293 214.728532,18.6618007 214.953131,19.054848 C215.177729,19.4478953 215.290027,19.9251599 215.290027,20.486656 C215.290027,21.1925369 215.157676,21.7901202 214.892971,22.279424 C214.628265,22.7687278 214.27533,23.1657798 213.834155,23.470592 C213.392979,23.7754042 212.879619,23.9959887 212.294059,24.132352 C211.708498,24.2687153 211.102894,24.336896 210.477227,24.336896 C209.578833,24.336896 208.704516,24.1724603 207.854251,23.843584 C207.003985,23.5147077 206.298115,23.0454644 205.736619,22.43584 L207.637675,20.655104 C207.95853,21.0722154 208.375635,21.4171293 208.889003,21.689856 C209.402371,21.9625827 209.97188,22.098944 210.597547,22.098944 C210.806102,22.098944 211.018666,22.0748802 211.235243,22.026752 C211.45182,21.9786238 211.652351,21.9024219 211.836843,21.798144 C212.021334,21.6938661 212.169727,21.5534942 212.282027,21.377024 C212.394326,21.2005538 212.450475,20.98398 212.450475,20.727296 C212.450475,20.2460136 212.22989,19.9010997 211.788715,19.692544 C211.396559,19.5071611 210.830119,19.3217808 210.089381,19.1363985 L209.803435,19.06688 C209.370281,18.9706235 208.949165,18.8462941 208.540075,18.693888 C208.130985,18.5414819 207.766018,18.3409506 207.445163,18.092288 C207.124308,17.8436254 206.867628,17.5348072 206.675115,17.165824 C206.482602,16.7968408 206.386347,16.3396294 206.386347,15.794176 C206.386347,15.1524661 206.518697,14.5989997 206.783403,14.13376 C207.048108,13.6685203 207.397033,13.2875108 207.830187,12.99072 C208.263341,12.6939292 208.752637,12.4733447 209.298091,12.32896 C209.843544,12.1845753 210.405032,12.112384 210.982571,12.112384 C211.816794,12.112384 212.630951,12.2567666 213.425067,12.545536 C214.219183,12.8343054 214.848851,13.2754744 215.314091,13.869056 L213.437099,15.529472 Z M226.46107,17.069568 C226.46107,16.7005848 226.408932,16.3476497 226.304654,16.010752 C226.200376,15.6738543 226.035941,15.377068 225.811342,15.120384 C225.586744,14.8637 225.301989,14.6591581 224.95707,14.506752 C224.612151,14.3543459 224.207078,14.278144 223.741838,14.278144 C222.87553,14.278144 222.141585,14.5388347 221.539982,15.060224 C220.938379,15.5816133 220.605497,16.2513879 220.541326,17.069568 L226.46107,17.069568 Z M229.34875,18.369024 L229.34875,18.754048 C229.34875,18.88239 229.340729,19.01073 229.324686,19.139072 L220.541326,19.139072 C220.573412,19.5561834 220.681699,19.9371929 220.86619,20.282112 C221.050682,20.6270311 221.29533,20.9238174 221.600142,21.17248 C221.904954,21.4211426 222.249868,21.6176633 222.634894,21.762048 C223.01992,21.9064327 223.420983,21.978624 223.838094,21.978624 C224.560018,21.978624 225.169633,21.8462733 225.666958,21.581568 C226.164283,21.3168627 226.573367,20.9518957 226.894222,20.486656 L228.819342,22.026752 C227.680307,23.5668557 226.027929,24.336896 223.862158,24.336896 C222.963764,24.336896 222.137575,24.1965241 221.383566,23.915776 C220.629557,23.6350279 219.975825,23.2379759 219.42235,22.724608 C218.868875,22.2112401 218.435728,21.5815717 218.122894,20.835584 C217.810061,20.0895963 217.653646,19.2433541 217.653646,18.296832 C217.653646,17.3663527 217.810061,16.5201105 218.122894,15.75808 C218.435728,14.9960495 218.864865,14.346328 219.410318,13.808896 C219.955772,13.271464 220.601483,12.8543588 221.34747,12.557568 C222.093458,12.2607772 222.899594,12.112384 223.765902,12.112384 C224.56804,12.112384 225.310006,12.2447347 225.991822,12.50944 C226.673639,12.7741453 227.263201,13.1671867 227.760526,13.688576 C228.257851,14.2099653 228.646882,14.8596868 228.92763,15.63776 C229.208378,16.4158332 229.34875,17.3262455 229.34875,18.369024 Z M232.67493,12.44928 L235.418226,12.44928 L235.418226,14.302208 L235.466354,14.302208 C235.723038,13.7246691 236.168217,13.2153195 236.801906,12.774144 C237.435594,12.3329685 238.185581,12.112384 239.05189,12.112384 C239.805899,12.112384 240.45161,12.2447347 240.989042,12.50944 C241.526474,12.7741453 241.967643,13.1230698 242.312562,13.556224 C242.657481,13.9893782 242.91015,14.4866959 243.070578,15.048192 C243.231005,15.6096881 243.311218,16.1872184 243.311218,16.7808 L243.311218,24 L240.423538,24 L240.423538,17.598976 C240.423538,17.2620783 240.399474,16.9091432 240.351346,16.54016 C240.303218,16.1711768 240.198941,15.8382948 240.038514,15.541504 C239.878086,15.2447132 239.657502,15.000065 239.376754,14.807552 C239.096006,14.615039 238.723017,14.518784 238.257778,14.518784 C237.792538,14.518784 237.391476,14.6110284 237.054578,14.79552 C236.71768,14.9800116 236.440947,15.2166386 236.22437,15.505408 C236.007793,15.7941774 235.843357,16.1270594 235.731058,16.504064 C235.618759,16.8810686 235.56261,17.2620781 235.56261,17.647104 L235.56261,24 L232.67493,24 L232.67493,12.44928 Z M245.554517,14.759424 L245.554517,12.44928 L247.575893,12.44928 L247.575893,9.104384 L250.415445,9.104384 L250.415445,12.44928 L253.303125,12.44928 L253.303125,14.759424 L250.415445,14.759424 L250.415445,20.125696 C250.415445,20.6390639 250.50769,21.0641903 250.692181,21.401088 C250.876673,21.7379857 251.289768,21.906432 251.931477,21.906432 C252.12399,21.906432 252.332543,21.8863789 252.557141,21.846272 C252.78174,21.8061651 252.982271,21.7460057 253.158741,21.665792 L253.254997,23.927808 C252.998313,24.0240645 252.693506,24.1002664 252.340565,24.156416 C251.987625,24.2125656 251.650732,24.24064 251.329877,24.24064 C250.559826,24.24064 249.934168,24.1323531 249.452885,23.915776 C248.971603,23.6991989 248.590593,23.4024126 248.309845,23.025408 C248.029097,22.6484034 247.836587,22.2152558 247.732309,21.725952 C247.628032,21.2366482 247.575893,20.7112561 247.575893,20.14976 L247.575893,14.759424 L245.554517,14.759424 Z M262.260281,15.529472 C262.003597,15.1925743 261.650662,14.8997986 261.201465,14.651136 C260.752268,14.4024734 260.262972,14.278144 259.733561,14.278144 C259.268321,14.278144 258.843195,14.374399 258.458169,14.566912 C258.073143,14.759425 257.880633,15.0802751 257.880633,15.529472 C257.880633,15.9786689 258.093196,16.2955084 258.518329,16.48 C258.896225,16.6439925 259.429391,16.8111518 260.117841,16.9814817 L260.383289,17.045504 C260.816443,17.1417605 261.253601,17.2701005 261.694777,17.430528 C262.135952,17.5909555 262.537015,17.8035187 262.897977,18.068224 C263.258939,18.3329293 263.551714,18.6618007 263.776313,19.054848 C264.000911,19.4478953 264.113209,19.9251599 264.113209,20.486656 C264.113209,21.1925369 263.980858,21.7901202 263.716153,22.279424 C263.451448,22.7687278 263.098512,23.1657798 262.657337,23.470592 C262.216161,23.7754042 261.702801,23.9959887 261.117241,24.132352 C260.531681,24.2687153 259.926076,24.336896 259.300409,24.336896 C258.402015,24.336896 257.527699,24.1724603 256.677433,23.843584 C255.827167,23.5147077 255.121297,23.0454644 254.559801,22.43584 L256.460857,20.655104 C256.781712,21.0722154 257.198817,21.4171293 257.712185,21.689856 C258.225553,21.9625827 258.795062,22.098944 259.420729,22.098944 C259.629285,22.098944 259.841848,22.0748802 260.058425,22.026752 C260.275002,21.9786238 260.475533,21.9024219 260.660025,21.798144 C260.844517,21.6938661 260.99291,21.5534942 261.105209,21.377024 C261.217508,21.2005538 261.273657,20.98398 261.273657,20.727296 C261.273657,20.2460136 261.053072,19.9010997 260.611897,19.692544 C260.219741,19.5071611 259.653301,19.3217808 258.912564,19.1363985 L258.626617,19.06688 C258.193463,18.9706235 257.772347,18.8462941 257.363257,18.693888 C256.954167,18.5414819 256.5892,18.3409506 256.268345,18.092288 C255.94749,17.8436254 255.69081,17.5348072 255.498297,17.165824 C255.305784,16.7968408 255.209529,16.3396294 255.209529,15.794176 C255.209529,15.1524661 255.34188,14.5989997 255.606585,14.13376 C255.87129,13.6685203 256.220215,13.2875108 256.653369,12.99072 C257.086523,12.6939292 257.57582,12.4733447 258.121273,12.32896 C258.666726,12.1845753 259.228214,12.112384 259.805753,12.112384 C260.639976,12.112384 261.454133,12.2567666 262.248249,12.545536 C263.042365,12.8343054 263.672033,13.2754744 264.137273,13.869056 L262.260281,15.529472 Z" id="presents" fill="#FFFFFF" fill-rule="nonzero"></path>
                    </g>
                </g>
            </g>
        </g>
    </g>
</svg>