<svg xmlns="http://www.w3.org/2000/svg" preserveAspectRatio="none" viewBox="0 0 1440 1050"><path fill="#CC6859" d="M1440.01019 8.13660456V804.242297c-170.31926 66.750551-391.21163 91.001332-470.008745 91.173253-132.975656.290128-383.560795-27.264379-574-18-104.393234 5.078462-254.311131 44.32264-396.00208469 66.439911V577.902299c19.95123359-3.391511 39.56130189-9.749671 58.83280829-19.074479C195.650978 492.625981 309.945983 268.634396 652.826195 149.798383 835.460115 86.5008042 1149.69124 18.1969336 1440.01019 8.13660456z"/><path fill="#FF8370" d="M1440.00883 0v776.108134c-174.10173 82.837222-432.3948 112.118443-519.007385 112.307416-132.975656.290128-383.560795-27.264379-574-18C254.582405 874.911499 126.483357 906.184866 0 928.646128V556.314675c3.28802559-1.41035 6.56496261-2.905968 9.83216859-4.486855C146.650978 485.625981 260.945983 261.634396 603.826195 142.798383 796.789542 75.9208136 1136.65682 3.45464543 1440.00883 0z"/></svg>