<svg id="Ebene_1" xmlns="http://www.w3.org/2000/svg" viewBox="0 0 612 993" enable-background="new 0 0 612 993"><style>.st2,.st6{fill-rule:evenodd;clip-rule:evenodd;fill:#fff}.st6{fill:#ff8370}</style><path d="M593.7 47.4C732.3 438.8 17.1 705.5 265.6 993H0V0h580.7c3 14.9 7.3 31.4 13 47.4z" fill-rule="evenodd" clip-rule="evenodd" fill="#69d9c2"/><defs><filter id="Adobe_OpacityMaskFilter" filterUnits="userSpaceOnUse" x="195.6" y="0" width="416" height="993"><feColorMatrix values="1 0 0 0 0 0 1 0 0 0 0 0 1 0 0 0 0 0 1 0"/></filter></defs><mask maskUnits="userSpaceOnUse" x="195.6" y="0" width="416" height="993" id="mask-2_1_"><g filter="url(#Adobe_OpacityMaskFilter)"><path id="path-1_1_" class="st2" d="M593.7 47.4C732.3 438.8 17.1 705.1 265.6 992.5c-23.4-.5-46.6-1.4-69.6-2.8V1h384.7c3 14.9 7.3 30.4 13 46.4z"/></g></mask><path d="M593.7 47.4C732.4 439 16.3 705.4 266 993h-16.1C5 668.6 675.1 445.6 561.7 25.2c-2.2-8.2-4.2-17.3-5.9-25.2h24.9c3 14.9 7.3 31.4 13 47.4z" mask="url(#mask-2_1_)" fill-rule="evenodd" clip-rule="evenodd" fill="#54ad9b"/><defs><filter id="Adobe_OpacityMaskFilter_1_" filterUnits="userSpaceOnUse" x="397.6" y="190.2" width="255.4" height="262.4"><feColorMatrix values="1 0 0 0 0 0 1 0 0 0 0 0 1 0 0 0 0 0 1 0"/></filter></defs><mask maskUnits="userSpaceOnUse" x="397.6" y="190.2" width="255.4" height="262.4" id="mask-2_2_"><g filter="url(#Adobe_OpacityMaskFilter_1_)"><path id="path-1_2_" class="st2" d="M593.7 47.4C732.3 438.8 17.1 705.1 265.6 992.5c-23.4-.5-46.6-1.4-69.6-2.8V1h384.7c3 14.9 7.3 30.4 13 46.4z"/></g></mask><path id="Path" d="M641.7 227.7c5.8-1.4 8.4 1.8 5.8 7.2l-32.9 68c-2.6 5.4-2.4 13.9.6 18.9l36.7 62.8c2.9 5 .5 8.6-5.4 8.1l-74.1-6.9c-5.9-.5-14 2.7-18 7.2l-50.7 56.9c-4 4.5-8.2 3.5-9.2-2.2l-12.9-72.3c-1-5.7-6.3-12.2-11.7-14.4l-68.1-27.6c-5.4-2.2-5.5-6.4-.3-9.4l66.2-37.8c5.2-3 10.1-10.2 10.8-16.1l8.6-73.9c.7-5.9 4.7-7.5 9-3.6l53.8 49c4.3 3.9 12.5 5.9 18.3 4.5l73.5-18.4z" mask="url(#mask-2_2_)" fill-rule="evenodd" clip-rule="evenodd" fill="#ff8370"/><path class="st6" d="M313.7 153.6c.3-3 2.3-3.7 4.4-1.6l27 26.9c2.1 2.1 6.2 3.4 9.1 2.8l36-7.2c2.8-.6 4.2 1.2 3 3.9l-15.5 34.2c-1.2 2.7-1 7.1.5 9.8l18.8 33.5c1.5 2.7.3 4.5-2.6 4l-36.6-5.7c-2.9-.5-6.9 1-8.8 3.2l-24.4 27.9c-1.9 2.2-4 1.6-4.5-1.4L313 246c-.6-3-3.2-6.5-5.9-7.8L273.2 222c-2.7-1.3-2.8-3.5-.2-4.9l32.2-17.6c2.5-1.4 4.9-5 5.1-8l3.4-37.9zM189.6 135.2c1.8-1.8 3.5-1.2 3.7 1.3l2.9 31.9c.2 2.5 2.2 5.6 4.3 6.7l27.1 14.8c2.1 1.2 2.1 3-.2 4.1l-28.5 13.7c-2.3 1.1-4.5 4-5 6.5l-6 31.7c-.5 2.5-2.2 3-3.8 1.2l-20.5-23.5c-1.6-1.9-5-3.1-7.4-2.7l-30.8 4.8c-2.4.4-3.4-1.1-2.2-3.4l15.8-28.2c1.3-2.2 1.4-5.9.4-8.2l-13-28.8c-1-2.3.1-3.7 2.5-3.3l30.3 6c2.4.5 5.8-.6 7.6-2.4l22.8-22.2zM35.8 174.4c1-.9 1.8-.6 2 .7l1.5 16.9c.1 1.3 1.1 2.9 2.3 3.6l14.3 7.8c1.1.6 1.1 1.6-.1 2.2l-15 7.2c-1.2.6-2.4 2.1-2.6 3.5L34.9 233c-.3 1.3-1.2 1.6-2 .6l-10.8-12.4c-.9-1-2.6-1.6-3.9-1.4l-16.3 2.5c-1.3.2-1.8-.6-1.1-1.8l8.3-14.9c.7-1.2.8-3.1.2-4.3l-6.9-15.2c-.5-1.2 0-2 1.3-1.7l16 3.2c1.3.3 3.1-.3 4-1.3l12.1-11.9z"/></svg>