<?xml version="1.0" encoding="UTF-8"?>
<svg width="24px" height="20px" viewBox="0 0 24 20" version="1.1" xmlns="http://www.w3.org/2000/svg" xmlns:xlink="http://www.w3.org/1999/xlink">
    <!-- Generator: Sketch 58 (84663) - https://sketch.com -->
    <title>Path</title>
    <desc>Created with Sketch.</desc>
    <g id="Rework6.0" stroke="none" stroke-width="1" fill="none" fill-rule="evenodd">
        <g id="V4.1-Hauptseite" transform="translate(-1324.000000, -159.000000)" fill="#7000C0">
            <g id="Group-14" transform="translate(0.000000, 90.000000)">
                <g id="Group" transform="translate(1243.000000, 67.000000)">
                    <path d="M105,4.36771944 C104.117,4.76968827 103.168,5.04040197 102.172,5.16242822 C103.189,4.53794094 103.97,3.54840033 104.337,2.36915505 C103.386,2.94749795 102.332,3.36792453 101.21,3.59454471 C100.313,2.61320755 99.032,2 97.616,2 C94.437,2 92.101,5.0414274 92.819,8.19872847 C88.728,7.98851518 85.1,5.97867104 82.671,2.92391304 C81.381,5.19319114 82.002,8.16181296 84.194,9.66509434 C83.388,9.63843314 82.628,9.41181296 81.965,9.03342904 C81.911,11.3724364 83.546,13.5607055 85.914,14.0477851 C85.221,14.240566 84.462,14.285685 83.69,14.1339212 C84.316,16.1396637 86.134,17.5988515 88.29,17.6398687 C86.22,19.3041427 83.612,20.04758 81,19.7317473 C83.179,21.164274 85.768,22 88.548,22 C97.69,22 102.855,14.0826497 102.543,6.98154225 C103.505,6.26886792 104.34,5.37981952 105,4.36771944 Z" id="Path"></path>
                </g>
            </g>
        </g>
    </g>
</svg>