<svg width="33" height="40" xmlns="http://www.w3.org/2000/svg"><path d="M27.055 21.345c.055 5.91 5.186 7.878 5.243 7.903-.044.138-.82 2.803-2.704 5.555-1.628 2.38-3.317 4.75-5.979 4.8-2.615.048-3.456-1.551-6.446-1.551-2.99 0-3.924 1.501-6.4 1.599-2.57.097-4.526-2.573-6.167-4.944-3.354-4.85-5.918-13.703-2.476-19.68 1.71-2.968 4.766-4.847 8.083-4.896 2.522-.048 4.904 1.698 6.446 1.698 1.541 0 4.435-2.1 7.477-1.791 1.274.053 4.849.514 7.144 3.875-.185.114-4.265 2.49-4.22 7.432M22.14 6.83c1.364-1.651 2.282-3.95 2.031-6.237-1.966.08-4.343 1.31-5.753 2.96-1.264 1.462-2.371 3.8-2.073 6.042 2.192.17 4.43-1.113 5.795-2.765" fill="#000" fill-rule="nonzero"/></svg>