<svg width="97" height="22" xmlns="http://www.w3.org/2000/svg"><g fill-rule="nonzero" fill="none"><path fill="#ED1C24" d="M.473 21.675h6.31v-1.912H.474zM.473 19.19h6.31v-1.913H.474zM.473 16.704h6.31V14.79H.474z"/><path fill="#F6836C" d="M.473 14.217h6.31v-1.912H.474zM.473 11.73h6.31V9.82H.474v1.912z"/><path fill="#FFF200" d="M7.549 21.675h6.311v-1.912H7.55zM7.549 19.19h6.311v-1.913H7.55zM7.549 16.704h6.311V14.79H7.55z"/><path fill="#EC008C" d="M14.625 21.675h6.311v-1.912h-6.311v1.912zM14.625 19.19h6.311v-1.913h-6.311v1.913zM14.625 16.704h6.311V14.79h-6.311v1.913z"/><path fill="#F680C5" d="M14.625 14.217h6.311v-1.912h-6.311v1.912zM14.625 11.73h6.311V9.82h-6.311v1.912zM14.625 9.245h6.311V7.332h-6.311v1.913zM14.625 6.759h6.311V4.846h-6.311v1.913z"/><path fill="#B2DB18" d="M21.701 21.675h6.311v-1.912h-6.311zM21.701 19.19h6.311v-1.913h-6.311zM21.701 16.704h6.311V14.79h-6.311z"/><path fill="#D9ED84" d="M21.701 14.217h6.311v-1.912h-6.311zM21.701 11.73h6.311V9.82h-6.311v1.912z"/><path fill="#59CAF5" d="M28.777 21.675h6.312v-1.912h-6.312zM28.777 19.19h6.312v-1.913h-6.312zM28.777 16.703h6.312V14.79h-6.312z"/><path fill="#B2E6FA" d="M28.777 14.217h6.312v-1.913h-6.312v1.913zM28.777 11.73h6.312V9.819h-6.312zM28.777 9.244h6.312V7.332h-6.312zM28.777 6.757h6.312V4.845h-6.312zM28.777 4.272h6.312V2.359h-6.312z"/><path d="M40.442 19.205h1.482c2.176 0 2.533-1.147 2.533-4.793v-7.29c0-3.148-.27-4.206-2.767-4.206h-1.248v16.29zM37.574.447h4.732c4.763 0 5.213 1.667 5.213 7.842v6.31c0 5.44-1.094 7.076-5.738 7.076h-4.207V.447zM48.665.447h8.033V2.97h-5.164v6.657h4.78v2.486h-4.78v7.04h5.164v2.522h-8.033V.447M57.846.447h8.031V2.97h-5.163v6.657h4.781v2.486h-4.78v7.04h5.162v2.522h-8.031V.447M77.543.447h8.032V2.97h-5.164v6.657h4.782v2.486h-4.782v7.04h5.164v2.522h-8.032V.447M67.025 19.189l6.609-16.256h-6.61V.447h9.371v2.486L69.9 19.189h6.495v2.486l-9.37-.001v-2.485M89.591 9.817h.89c2.323 0 2.677-.287 2.677-3.461 0-3.147-.282-3.425-2.103-3.425h-1.464v6.886zM86.723.447h4.59c4.292 0 4.593 1.094 4.593 5.74 0 2.85-.269 4.244-2.68 4.979 1.999.205 2.684 1.249 2.684 3.247v4.616c0 .766.005 1.763.185 2.645h-2.87c-.295-.53-.189-1.051-.189-1.904v-4.792c0-2-.38-2.483-2.32-2.483H89.59v9.18l-2.868-.001V.447z" fill="#231F20"/></g></svg>