<?xml version="1.0" encoding="UTF-8"?>
<svg width="51px" height="19px" viewBox="0 0 51 19" version="1.1" xmlns="http://www.w3.org/2000/svg" xmlns:xlink="http://www.w3.org/1999/xlink">
    <!-- Generator: Sketch 58 (84663) - https://sketch.com -->
    <title>Deezer</title>
    <desc>Created with Sketch.</desc>
    <g id="Rework6.0" stroke="none" stroke-width="1" fill="none" fill-rule="evenodd">
        <g id="iPhone-8" transform="translate(-274.000000, -938.000000)" fill="#FF0045" fill-rule="nonzero">
            <g id="Group-17" transform="translate(24.000000, 920.000000)">
                <g id="Deezer" transform="translate(250.319767, 18.312000)">
                    <path d="M2.51684985,16.1114609 L3.79007378,16.1114609 C5.65934692,16.1114609 5.9654244,15.1263526 5.9654244,11.9946808 L5.9654244,5.7325205 C5.9654244,3.02978811 5.73404163,2.12099697 3.58864938,2.12099697 L2.51684985,2.12099697 L2.51684985,16.1114609 Z M0.0538463042,1.36883714e-07 L4.11811562,1.36883714e-07 C8.20927163,1.36883714e-07 8.59543156,1.43171042 8.59543156,6.73524495 L8.59543156,12.1554275 C8.59543156,16.827432 7.65581242,18.2331104 3.66693592,18.2331104 L0.0538463042,18.2331104 L0.0538463042,1.36883714e-07 L0.0538463042,1.36883714e-07 Z" id="path78"></path>
                    <polyline id="path80" points="9.58007723 1.36883714e-07 16.4792549 1.36883714e-07 16.4792549 2.16735502 12.0440088 2.16735502 12.0440088 7.88451848 16.1503453 7.88451848 16.1503453 10.020408 12.0440088 10.020408 12.0440088 16.0673222 16.4792549 16.0673222 16.4792549 18.2331104 9.58007723 18.2331104 9.58007723 1.36883714e-07"></polyline>
                    <polyline id="path82" points="17.4650614 1.36883714e-07 24.3637737 1.36883714e-07 24.3637737 2.16735502 19.9289328 2.16735502 19.9289328 7.88451848 24.0355019 7.88451848 24.0355019 10.020408 19.9289328 10.020408 19.9289328 16.0673222 24.3637737 16.0673222 24.3637737 18.2331104 17.4650614 18.2331104 17.4650614 1.36883714e-07"></polyline>
                    <polyline id="path84" points="34.3830187 1.36883714e-07 41.2822566 1.36883714e-07 41.2822566 2.16735502 36.8469558 2.16735502 36.8469558 7.88451848 40.9542778 7.88451848 40.9542778 10.020408 36.8469558 10.020408 36.8469558 16.0673222 41.2822566 16.0673222 41.2822566 18.2331104 34.3830214 18.2331104 34.3830214 1.36883714e-07"></polyline>
                    <polyline id="path86" points="25.3490545 16.0974246 31.025543 2.13498958 25.3490545 2.13498958 25.3490545 2.75136279e-05 33.3973327 2.75136279e-05 33.3973327 2.13498958 27.818727 16.0974246 33.3973327 16.0974246 33.3973327 18.2331109 25.3490545 18.2319885 25.3490545 16.0974339"></polyline>
                    <path d="M44.731877,8.04813258 L45.4962083,8.04813258 C47.4913406,8.04813258 47.7955646,7.80185495 47.7955646,5.07495875 C47.7955646,2.37222686 47.5533434,2.13388835 45.9893429,2.13388835 L44.731877,2.13388835 L44.731877,8.04813258 Z M42.2679508,2.75136279e-05 L46.2101199,2.75136279e-05 C49.8973211,2.75136279e-05 50.1557685,0.939357472 50.1557685,4.92939469 C50.1557685,7.37814261 49.9245555,8.57557102 47.8535157,9.20644618 L47.8535157,9.20644618 C49.570503,9.38295418 50.1586704,10.2793452 50.1586704,11.9958095 L50.1586704,15.9604773 C50.1586704,16.6180487 50.1632971,17.4741312 50.3174419,18.2319792 L47.8535157,18.2319792 C47.5997004,17.7770004 47.6906788,17.3292622 47.6906788,16.5965445 L47.6906788,12.4806859 C47.6906788,10.7633228 47.3644384,10.3479546 45.697285,10.3479546 L44.731877,10.3479546 L44.731877,18.2331109 L42.2679508,18.2319885 L42.2679508,2.75136279e-05 L42.2679508,2.75136279e-05 Z" id="path88"></path>
                </g>
            </g>
        </g>
    </g>
</svg>