<svg width="33" height="37" xmlns="http://www.w3.org/2000/svg"><defs><linearGradient x1="0%" y1="50.02%" x2="100.018%" y2="50.02%" id="a"><stop stop-color="#63BE6B" offset="0%"/><stop stop-color="#5BBC6A" offset="50.6%"/><stop stop-color="#4AB96A" offset="100%"/></linearGradient><linearGradient x1="-.027%" y1="50.012%" x2="99.942%" y2="50.012%" id="b"><stop stop-color="#3EC6F2" offset="0%"/><stop stop-color="#45AFE3" offset="100%"/></linearGradient><linearGradient x1=".042%" y1="50.037%" x2="99.989%" y2="50.037%" id="c"><stop stop-color="#FAA51A" offset="0%"/><stop stop-color="#FAB716" offset="38.7%"/><stop stop-color="#FAC412" offset="74.1%"/><stop stop-color="#FAC80F" offset="100%"/></linearGradient><linearGradient x1=".016%" y1="49.998%" x2="99.999%" y2="49.998%" id="d"><stop stop-color="#EC3B50" offset="0%"/><stop stop-color="#E7515B" offset="100%"/></linearGradient></defs><g fill-rule="nonzero" fill="none"><path d="M20.451 11.082L1.201.102a.776.776 0 0 0-.78.007.769.769 0 0 0-.39.67S.037 1.79.045 3.458l14.022 13.994 6.383-6.37z" fill="url(#a)" transform="translate(.748 .364)"/><path d="M.03 3.454C.054 9.48.124 24.107.155 31.389L14.09 17.48.03 3.454z" fill="url(#b)" transform="translate(.748 .364)"/><path d="M31.445 17.377L20.422 11.09l-6.394 6.374 7.214 7.2 10.211-5.938a.779.779 0 0 0 .39-.67.789.789 0 0 0-.398-.678z" fill="url(#c)" transform="translate(.748 .364)"/><path d="M.151 31.39c.016 2.594.024 4.253.024 4.253 0 .28.148.538.39.67.243.14.54.14.782 0L21.3 24.713l-7.222-7.2L.151 31.39z" fill="url(#d)" transform="translate(.748 .364)"/></g></svg>