<?xml version="1.0" encoding="UTF-8"?>
<svg width="30px" height="30px" viewBox="0 0 30 30" version="1.1" xmlns="http://www.w3.org/2000/svg" xmlns:xlink="http://www.w3.org/1999/xlink">
    <!-- Generator: Sketch 58 (84663) - https://sketch.com -->
    <title>overcastCanvas-bezier</title>
    <desc>Created with Sketch.</desc>
    <g id="Rework6.0" stroke="none" stroke-width="1" fill="none" fill-rule="evenodd">
        <g id="iPhone-8" transform="translate(-285.000000, -1000.000000)" fill="#FF0045" fill-rule="nonzero">
            <g id="Group-17" transform="translate(24.000000, 920.000000)">
                <path d="M276,110 C267.687375,110 261,103.312625 261,95 C261,86.687375 267.687375,80 276,80 C284.312625,80 291,86.687375 291,95 C291,103.312625 284.312625,110 276,110 Z M276,104.062625 L277.125,102.937625 L276,98.625125 L274.875,102.937625 L276,104.062625 Z M274.562625,104 L274.000125,106.125125 L275.312625,104.812625 L274.562625,104 Z M277.437375,104 L276.687375,104.75 L277.999875,106.0625 L277.437375,104 Z M278.500125,107.874875 L276,105.375125 L273.499875,107.874875 C274.3125,108.000125 275.125125,108.125 276,108.125 C276.874875,108.125 277.6875,108.062375 278.500125,107.874875 Z M276,81.875 C268.750125,81.875 262.875,87.750125 262.875,95 C262.875,100.749875 266.562375,105.624875 271.6875,107.375 L274.5,96.937625 C273.874875,96.5 273.499875,95.75 273.499875,94.937375 C273.499875,93.562625 274.624875,92.437625 276,92.437625 C277.375125,92.437625 278.500125,93.562625 278.500125,94.937375 C278.500125,95.75 278.125125,96.437375 277.5,96.937625 L280.3125,107.375 C285.437625,105.624875 289.125,100.749875 289.125,95 C289.125,87.750125 283.249875,81.875 276,81.875 Z M284.562375,101.499875 C284.25,101.874875 283.6875,102.000125 283.249875,101.687375 C282.812625,101.375 282.75,100.8125 283.062375,100.4375 C283.062375,100.4375 284.749875,98.1875 284.749875,95 C284.749875,91.8125 283.062375,89.5625 283.062375,89.5625 C282.75,89.1875 282.812625,88.625 283.249875,88.312625 C283.6875,87.999875 284.25,88.125125 284.562375,88.500125 C284.687625,88.625 286.624875,91.187375 286.624875,95 C286.624875,98.812625 284.687625,101.375 284.562375,101.499875 Z M280.000125,99.062375 C279.625125,98.687375 279.687375,98 280.062375,97.625 C280.062375,97.625 280.999875,96.624875 280.999875,95 C280.999875,93.375125 280.062375,92.437625 280.062375,92.375 C279.687375,92 279.687375,91.374875 280.000125,90.937625 C280.375125,90.5 280.937625,90.5 281.312625,90.875 C281.374875,90.937625 282.874875,92.499875 282.874875,95 C282.874875,97.500125 281.374875,99.062375 281.312625,99.125 C280.937625,99.5 280.375125,99.437375 280.000125,99.062375 Z M271.999875,99.062375 C271.624875,99.437375 271.062375,99.5 270.687375,99.125 C270.625125,99.000125 269.125125,97.500125 269.125125,95 C269.125125,92.499875 270.625125,90.999875 270.687375,90.875 C271.062375,90.5 271.6875,90.5 271.999875,90.937625 C272.374875,91.312625 272.312625,92 271.937625,92.375 C271.937625,92.437625 271.000125,93.375125 271.000125,95 C271.000125,96.624875 271.937625,97.625 271.937625,97.625 C272.312625,98 272.374875,98.625125 271.999875,99.062375 Z M268.750125,101.687375 C268.3125,102.000125 267.75,101.874875 267.437625,101.499875 C267.312375,101.375 265.375125,98.812625 265.375125,95 C265.375125,91.187375 267.312375,88.625 267.437625,88.500125 C267.75,88.125125 268.3125,87.999875 268.750125,88.312625 C269.187375,88.625 269.25,89.1875 268.937625,89.5625 C268.937625,89.5625 267.250125,91.8125 267.250125,95 C267.250125,98.1875 268.937625,100.4375 268.937625,100.4375 C269.25,100.8125 269.125125,101.375 268.750125,101.687375 Z" id="overcastCanvas-bezier"></path>
            </g>
        </g>
    </g>
</svg>