<svg width="54" height="31" xmlns="http://www.w3.org/2000/svg"><defs><linearGradient x1="49.995%" y1="-.014%" x2="49.995%" y2="99.986%" id="a"><stop stop-color="#F79810" offset="0%"/><stop stop-color="#F8310E" offset="100%"/></linearGradient></defs><path d="M.67 14.022c-.113 0-.202.087-.217.21l-.394 3 .394 2.946c.015.125.104.211.216.211.11 0 .198-.086.215-.21l.467-2.948-.467-2.999c-.017-.123-.106-.21-.215-.21zm2.215-1.639c-.019-.129-.11-.217-.224-.217s-.209.091-.224.217l-.53 4.848.53 4.741c.015.127.11.22.224.22.113 0 .205-.09.223-.219l.603-4.742-.602-4.848zm8.347-4.472a.416.416 0 0 0-.408.405l-.421 8.92.421 5.764c.011.225.19.403.408.403a.419.419 0 0 0 .408-.404V23l.477-5.764-.477-8.92a.419.419 0 0 0-.408-.405zm-4.32 3.1c-.167 0-.303.134-.317.312l-.475 5.91.475 5.718c.013.177.15.31.317.31.165 0 .301-.133.316-.31l.54-5.718-.54-5.911c-.015-.177-.151-.31-.316-.31zm8.71 12.391c.27 0 .488-.218.5-.496l.413-5.668-.413-11.875a.506.506 0 0 0-.5-.496.504.504 0 0 0-.5.497l-.367 11.874.367 5.67a.504.504 0 0 0 .5.494zm8.987.027c.371 0 .677-.306.684-.682v.004-.004l.289-5.505-.289-13.715a.692.692 0 0 0-.684-.682.691.691 0 0 0-.683.682l-.258 13.71.258 5.513a.691.691 0 0 0 .683.679zm-4.528-.022c.323 0 .583-.26.592-.59v.004l.351-5.581-.352-11.962a.596.596 0 0 0-.591-.59.593.593 0 0 0-.592.59l-.313 11.962.313 5.58a.593.593 0 0 0 .592.587zm-11.018-.052A.37.37 0 0 0 9.425 23l.509-5.766-.509-5.484a.368.368 0 0 0-.362-.356.367.367 0 0 0-.362.358l-.448 5.482.448 5.765a.367.367 0 0 0 .362.357zm-4.285-.316c.14 0 .253-.11.27-.264l.571-5.543-.57-5.752c-.018-.154-.131-.265-.271-.265-.142 0-.256.112-.27.265l-.503 5.752.503 5.542c.013.154.127.265.27.265zM22.337 5.08a.64.64 0 0 0-.639.637l-.285 11.525.285 5.545a.638.638 0 0 0 1.276-.004v.005l.32-5.546-.32-11.526a.64.64 0 0 0-.637-.636zm-8.918 18.335a.463.463 0 0 0 .453-.45l.445-5.727-.445-10.96a.463.463 0 0 0-.453-.45.461.461 0 0 0-.455.45l-.394 10.96.395 5.729c.01.25.21.448.454.448zm4.97-.54v-.004l.382-5.631-.383-12.275a.551.551 0 0 0-.545-.544.55.55 0 0 0-.546.544l-.34 12.274.34 5.635c.009.302.249.54.546.54a.55.55 0 0 0 .545-.542v.002zm28.925-12.71c-.908 0-1.774.183-2.563.515C44.223 4.694 39.214 0 33.104 0c-1.495 0-2.952.295-4.239.794-.5.194-.633.393-.638.78V22.65c.005.406.32.744.716.784.017.002 18.252.012 18.37.012 3.66 0 6.628-2.974 6.628-6.64 0-3.668-2.967-6.642-6.627-6.642zM26.872 1.555a.738.738 0 0 0-.73.73l-.3 14.958.3 5.428a.736.736 0 0 0 .73.724.737.737 0 0 0 .73-.73v.007l.325-5.43-.325-14.959a.738.738 0 0 0-.73-.728zM5.411 27.666c-.784-.185-.996-.284-.996-.595 0-.22.177-.446.706-.446.453 0 .806.184 1.124.51l.713-.694c-.466-.488-1.031-.778-1.8-.778-.977 0-1.768.552-1.768 1.451 0 .977.637 1.267 1.548 1.479.932.212 1.102.354 1.102.673 0 .375-.277.538-.862.538-.473 0-.918-.163-1.265-.567l-.713.637c.374.552 1.095.899 1.921.899 1.35 0 1.944-.637 1.944-1.578 0-1.076-.87-1.345-1.654-1.53zm4.551-2.003c-1.349 0-2.147 1.047-2.147 2.555 0 1.508.798 2.554 2.147 2.554 1.35 0 2.148-1.046 2.148-2.554 0-1.508-.799-2.555-2.148-2.555zm0 4.126c-.798 0-1.13-.686-1.13-1.57 0-.885.332-1.572 1.13-1.572.8 0 1.13.687 1.13 1.571 0 .885-.33 1.571-1.13 1.571zm6.14-1.266c0 .792-.39 1.28-1.017 1.28-.63 0-1.01-.502-1.01-1.294V25.74h-.99v2.783c0 1.443.806 2.25 2 2.25 1.257 0 2.006-.829 2.006-2.264V25.74h-.989v2.783zm5.256-.687c0 .276.014.899.014 1.083-.064-.128-.226-.375-.346-.56l-1.753-2.62h-.946v4.956h.975v-2.18c0-.277-.014-.9-.014-1.083.063.127.227.375.346.56l1.816 2.703h.883V25.74h-.975v2.097zm3.794-2.096h-1.547v4.956h1.475c1.272 0 2.53-.737 2.53-2.478 0-1.813-1.045-2.478-2.458-2.478zm-.072 3.993h-.486v-3.03h.522c1.046 0 1.478.502 1.478 1.515 0 .906-.475 1.515-1.514 1.515zm5.59-3.087c.445 0 .727.199.904.538l.918-.424c-.31-.644-.876-1.097-1.809-1.097-1.291 0-2.197 1.047-2.197 2.555 0 1.564.87 2.554 2.162 2.554.898 0 1.49-.417 1.83-1.118l-.833-.496c-.262.44-.524.63-.969.63-.741 0-1.173-.679-1.173-1.57 0-.92.425-1.572 1.166-1.572zm3.668-.906h-.99v4.956h2.974v-.978h-1.984V25.74zm4.59-.077c-1.35 0-2.149 1.047-2.149 2.555 0 1.508.798 2.554 2.148 2.554s2.148-1.046 2.148-2.554c0-1.508-.799-2.555-2.148-2.555zm0 4.126c-.8 0-1.131-.686-1.131-1.57 0-.885.331-1.572 1.13-1.572.798 0 1.13.687 1.13 1.571 0 .885-.332 1.571-1.13 1.571zm6.138-1.266c0 .792-.387 1.28-1.016 1.28-.63 0-1.01-.502-1.01-1.294V25.74h-.99v2.783c0 1.443.806 2.25 2 2.25 1.257 0 2.006-.829 2.006-2.264V25.74h-.99v2.783zm3.773-2.783h-1.546v4.956h1.476c1.272 0 2.529-.737 2.529-2.478 0-1.813-1.045-2.478-2.459-2.478zm-.07 3.993h-.488v-3.03h.524c1.044 0 1.475.502 1.475 1.515 0 .906-.473 1.515-1.511 1.515z" fill="url(#a)" fill-rule="nonzero"/></svg>