<svg width="38" height="38" xmlns="http://www.w3.org/2000/svg"><path d="M18.716.364C8.466.364.158 8.657.158 18.887S8.467 37.41 18.716 37.41c10.25 0 18.558-8.293 18.558-18.523S28.966.365 18.716.364zm8.511 26.714a1.157 1.157 0 0 1-1.59.384c-4.358-2.658-9.843-3.258-16.303-1.785a1.156 1.156 0 1 1-.515-2.252c7.068-1.611 13.133-.917 18.025 2.066.544.335.718 1.044.383 1.587zm2.27-5.042a1.45 1.45 0 0 1-1.99.476c-4.987-3.06-12.592-3.946-18.492-2.16a1.45 1.45 0 0 1-1.806-.961 1.446 1.446 0 0 1 .965-1.801c6.74-2.041 15.119-1.053 20.846 2.46.682.42.897 1.308.478 1.986zm.196-5.252c-5.982-3.546-15.85-3.872-21.56-2.143a1.733 1.733 0 0 1-1.007-3.315c6.555-1.986 17.452-1.603 24.338 2.477a1.731 1.731 0 0 1 .607 2.374 1.736 1.736 0 0 1-2.378.607z" fill="#2EBD59" fill-rule="nonzero"/></svg>